<?xml version="1.0" encoding="UTF-8" standalone="no"?>
<svg
   xmlns:dc="http://purl.org/dc/elements/1.1/"
   xmlns:cc="http://creativecommons.org/ns#"
   xmlns:rdf="http://www.w3.org/1999/02/22-rdf-syntax-ns#"
   xmlns:svg="http://www.w3.org/2000/svg"
   xmlns="http://www.w3.org/2000/svg"
   width="15"
   height="15"
   viewBox="0 0 15 15"
   version="1.1"
   id="svg8">
  <title
     id="title20">Aussichtsturm_geometrisch</title>
  <defs
     id="defs2" />
  <metadata
     id="metadata5">
    <rdf:RDF>
      <cc:Work
         rdf:about="">
        <dc:format>image/svg+xml</dc:format>
        <dc:type
           rdf:resource="http://purl.org/dc/dcmitype/StillImage" />
        <dc:title>Aussichtsturm_geometrisch</dc:title>
        <dc:creator>
          <cc:Agent>
            <dc:title>Carolin Rünger</dc:title>
          </cc:Agent>
        </dc:creator>
        <cc:license
           rdf:resource="http://creativecommons.org/licenses/by/4.0/" />
      </cc:Work>
      <cc:License
         rdf:about="http://creativecommons.org/licenses/by/4.0/">
        <cc:permits
           rdf:resource="http://creativecommons.org/ns#Reproduction" />
        <cc:permits
           rdf:resource="http://creativecommons.org/ns#Distribution" />
        <cc:requires
           rdf:resource="http://creativecommons.org/ns#Notice" />
        <cc:requires
           rdf:resource="http://creativecommons.org/ns#Attribution" />
        <cc:permits
           rdf:resource="http://creativecommons.org/ns#DerivativeWorks" />
      </cc:License>
    </rdf:RDF>
  </metadata>
  <path
     id="path17"
     fill="param(fill)" fill-opacity="param(fill-opacity)" stroke="param(outline)" stroke-opacity="param(outline-opacity)" stroke-width="param(outline-width)"
     d="M 6.4617194,1.4872693 7.38789,5.5127307 a 0.12495332,0.12495332 1.0741939 0 0 0.2424078,0.00455 L 8.7193116,1.482724 A 0.38293331,0.38293331 52.552702 0 0 8.3496094,1 h -1.5 a 0.39802427,0.39802427 128.52149 0 0 -0.38789,0.4872693 z M 3.1249622,2.2051159 2.0644909,3.2655872 a 0.38291771,0.38291771 82.446172 0 0 0.079928,0.6027393 L 5.7657371,5.9500329 A 0.12498797,0.12498797 133.92729 0 0 5.9339798,5.7753695 L 3.7437546,2.2754118 A 0.39798706,0.39798706 6.4811184 0 0 3.1249622,2.2051159 Z M 11.256245,2.2754118 9.0660202,5.7753695 A 0.12498798,0.12498798 46.072707 0 0 9.2342629,5.9500328 L 12.85558,3.8683266 a 0.38291774,0.38291774 97.553828 0 0 0.07993,-0.6027394 L 11.875037,2.2051159 a 0.39798702,0.39798702 173.51888 0 0 -0.618792,0.070296 z M 1,6.6503906 v 1.5 a 0.39802427,0.39802427 38.521492 0 0 0.4872693,0.38789 L 5.5127307,7.61211 A 0.12495332,0.12495332 91.074194 0 0 5.517276,7.3697022 L 1.482724,6.2806884 A 0.38293331,0.38293331 142.5527 0 0 1,6.6503906 Z M 13.517276,6.2806884 9.482724,7.3697022 A 0.12495332,0.12495332 88.925806 0 0 9.4872693,7.61211 L 13.512731,8.5382806 A 0.39802427,0.39802427 141.47851 0 0 14,8.1503906 l 0,-1.5 A 0.38293331,0.38293331 37.447298 0 0 13.517276,6.2806884 Z M 7.01318,6.3483427 C 6.7143086,6.4748358 6.4748638,6.7142727 6.3483603,7.0131386 6.2414315,7.2657588 6.2414326,7.7342183 6.3483427,7.98682 6.4748358,8.2856914 6.7142727,8.5251362 7.0131386,8.6516397 7.2657588,8.7585685 7.7342183,8.7585674 7.98682,8.6516573 8.2856914,8.5251642 8.5251362,8.2857273 8.6516397,7.9868614 8.7585685,7.7342412 8.7585674,7.2657817 8.6516573,7.01318 8.5251642,6.7143086 8.2857273,6.4748638 7.9868614,6.3483603 7.7342412,6.2414315 7.2657817,6.2414326 7.01318,6.3483427 Z M 5.7657371,9.0499671 2.1444192,11.131673 a 0.38291779,0.38291779 97.553837 0 0 -0.079928,0.602739 l 1.0604715,1.060473 a 0.39798693,0.39798693 173.51889 0 0 0.6187923,-0.0703 L 5.9339798,9.2246305 A 0.12498801,0.12498801 46.07271 0 0 5.7657371,9.0499671 Z m 3.3002831,0.1746635 2.1902248,3.4999584 a 0.39798689,0.39798689 6.4811136 0 0 0.618792,0.0703 l 1.060472,-1.060473 A 0.38291782,0.38291782 82.446163 0 0 12.85558,11.131673 L 9.2342629,9.0499671 A 0.12498801,0.12498801 133.92729 0 0 9.0660202,9.2246306 Z M 7.38789,9.4872693 6.4617194,13.512731 A 0.39802427,0.39802427 51.478508 0 0 6.8496094,14 l 1.5,0 A 0.38293331,0.38293331 127.4473 0 0 8.7193116,13.517276 L 7.6302978,9.482724 A 0.12495332,0.12495332 178.92581 0 0 7.38789,9.4872693 Z" />
</svg>
