<?xml version="1.0" encoding="UTF-8" standalone="no"?>
<svg
   xmlns:dc="http://purl.org/dc/elements/1.1/"
   xmlns:cc="http://creativecommons.org/ns#"
   xmlns:rdf="http://www.w3.org/1999/02/22-rdf-syntax-ns#"
   xmlns:svg="http://www.w3.org/2000/svg"
   xmlns="http://www.w3.org/2000/svg"
   xmlns:sodipodi="http://sodipodi.sourceforge.net/DTD/sodipodi-0.dtd"
   xmlns:inkscape="http://www.inkscape.org/namespaces/inkscape"
   width="15"
   height="15"
   viewBox="0 0 15 15"
   version="1.1"
   id="svg8"
   sodipodi:docname="Aussichtspunkt-geo.svg"
   inkscape:version="1.0.2-2 (e86c870879, 2021-01-15)">
  <sodipodi:namedview
     pagecolor="#ffffff"
     bordercolor="#666666"
     borderopacity="1"
     objecttolerance="10"
     gridtolerance="10"
     guidetolerance="10"
     inkscape:pageopacity="0"
     inkscape:pageshadow="2"
     inkscape:window-width="1920"
     inkscape:window-height="1000"
     id="namedview7"
     showgrid="true"
     inkscape:zoom="39.220856"
     inkscape:cx="7.5"
     inkscape:cy="7.5"
     inkscape:window-x="-11"
     inkscape:window-y="-11"
     inkscape:window-maximized="1"
     inkscape:current-layer="svg8"
     inkscape:document-rotation="0">
    <inkscape:grid
       type="xygrid"
       id="grid8" />
  </sodipodi:namedview>
  <title
     id="title15">Aussichtspunkt_geometrisch</title>
  <defs
     id="defs2" />
  <metadata
     id="metadata5">
    <rdf:RDF>
      <cc:Work
         rdf:about="">
        <dc:format>image/svg+xml</dc:format>
        <dc:type
           rdf:resource="http://purl.org/dc/dcmitype/StillImage" />
        <dc:title>Aussichtspunkt_geometrisch</dc:title>
        <dc:creator>
          <cc:Agent>
            <dc:title>Carolin Rünger</dc:title>
          </cc:Agent>
        </dc:creator>
        <cc:license
           rdf:resource="http://creativecommons.org/licenses/by/4.0/" />
      </cc:Work>
      <cc:License
         rdf:about="http://creativecommons.org/licenses/by/4.0/">
        <cc:permits
           rdf:resource="http://creativecommons.org/ns#Reproduction" />
        <cc:permits
           rdf:resource="http://creativecommons.org/ns#Distribution" />
        <cc:requires
           rdf:resource="http://creativecommons.org/ns#Notice" />
        <cc:requires
           rdf:resource="http://creativecommons.org/ns#Attribution" />
        <cc:permits
           rdf:resource="http://creativecommons.org/ns#DerivativeWorks" />
      </cc:License>
    </rdf:RDF>
  </metadata>
  <path
     id="path19-1-3"
     fill="param(fill)" fill-opacity="param(fill-opacity)" stroke="param(outline)" stroke-opacity="param(outline-opacity)" stroke-width="param(outline-width)"
     d="M 5.8729447,2.5148482 4.5864144,2.8527854 A 0.43332665,0.4252409 0 0 0 4.3057814,3.4433872 L 6.9750536,9.0567685 A 0.08446277,0.08288672 0 0 0 7.1355214,9.0124092 L 6.4301062,2.8875926 A 0.4449323,0.43662999 0 0 0 5.8729447,2.5148482 Z M 8.5707219,2.8876081 7.8670435,9.0123937 a 0.08446947,0.08289329 0 0 0 0.160492,0.044321 L 10.695024,3.4434405 A 0.43343618,0.42534839 0 0 0 10.414273,2.8527854 L 9.1277426,2.5148482 A 0.44480897,0.43650897 0 0 0 8.5707219,2.8876081 Z M 2.0136295,4.8134253 1.0968514,5.9793618 A 0.46497291,0.45629666 0 0 0 1.2211813,6.6466631 L 6.113744,9.6029689 A 0.09648205,0.09468173 0 0 0 6.241157,9.4650686 L 2.6418567,4.8157418 a 0.39561439,0.38823234 0 0 0 -0.6282272,-0.00231 z m 10.3908065,-0.0029 -3.7349147,4.659754 A 0.09388734,0.09213543 0 0 0 8.7919736,9.6060404 L 13.773557,6.6435916 A 0.47004745,0.4612765 0 0 0 13.907171,5.9738821 L 13.032164,4.818905 a 0.39516927,0.38779553 0 0 0 -0.627728,-0.00838 z M 6.9037985,10.102093 c -0.2909082,0.132125 -0.5421893,0.370919 -0.679868,0.663682 -0.118787,0.252593 -0.118782,0.730133 -2.755e-4,0.982469 0.1375249,0.292831 0.3886975,0.531729 0.6795468,0.663998 0.2571994,0.116966 0.742988,0.116966 0.9999237,2.71e-4 0.2909082,-0.132125 0.5421893,-0.370919 0.679868,-0.663683 0.1187871,-0.252592 0.118782,-0.730133 2.755e-4,-0.982468 C 8.4457442,10.473531 8.1945715,10.234632 7.9037223,10.102363 7.6465228,9.9853977 7.1607342,9.9853977 6.9037985,10.102093 Z" />
</svg>
