<?xml version="1.0" encoding="UTF-8" standalone="no"?>
<svg
   xmlns:dc="http://purl.org/dc/elements/1.1/"
   xmlns:cc="http://creativecommons.org/ns#"
   xmlns:rdf="http://www.w3.org/1999/02/22-rdf-syntax-ns#"
   xmlns:svg="http://www.w3.org/2000/svg"
   xmlns="http://www.w3.org/2000/svg"
   width="15"
   height="15"
   viewBox="0 0 15 15"
   version="1.1"
   id="svg8">
  <title
     id="title8">Aussichtspunkt_bildhaft</title>
  <defs
     id="defs2" />
  <metadata
     id="metadata5">
    <rdf:RDF>
      <cc:Work
         rdf:about="">
        <dc:format>image/svg+xml</dc:format>
        <dc:type
           rdf:resource="http://purl.org/dc/dcmitype/StillImage" />
        <dc:title>Aussichtspunkt_bildhaft</dc:title>
        <dc:creator>
          <cc:Agent>
            <dc:title>Carolin Rünger</dc:title>
          </cc:Agent>
        </dc:creator>
        <cc:license
           rdf:resource="http://creativecommons.org/licenses/by/4.0/" />
      </cc:Work>
      <cc:License
         rdf:about="http://creativecommons.org/licenses/by/4.0/">
        <cc:permits
           rdf:resource="http://creativecommons.org/ns#Reproduction" />
        <cc:permits
           rdf:resource="http://creativecommons.org/ns#Distribution" />
        <cc:requires
           rdf:resource="http://creativecommons.org/ns#Notice" />
        <cc:requires
           rdf:resource="http://creativecommons.org/ns#Attribution" />
        <cc:permits
           rdf:resource="http://creativecommons.org/ns#DerivativeWorks" />
      </cc:License>
    </rdf:RDF>
  </metadata>
  <path
     id="path4-90-5"
     fill="param(fill)" fill-opacity="param(fill-opacity)" stroke="param(outline)" stroke-opacity="param(outline-opacity)" stroke-width="param(outline-width)"
     d="m 3,1.5 v 1 A 0.5,0.5 45 0 0 3.5,3 H 5.7 A 0.5,0.5 135 0 0 6.2,2.5 v -1 A 0.5,0.5 45 0 0 5.7,1 H 3.5 A 0.5,0.5 135 0 0 3,1.5 Z m 5.8,0 v 1 A 0.5,0.5 45 0 0 9.3,3 h 2.2 A 0.5,0.5 135 0 0 12,2.5 v -1 A 0.5,0.5 45 0 0 11.5,1 H 9.3 A 0.5,0.5 135 0 0 8.8,1.5 Z M 6.7,3.75 V 7.5 A 0.5,0.5 45 0 0 7.2,8 H 7.8 A 0.5,0.5 135 0 0 8.3,7.5 V 3.75 A 0.5,0.5 45 0 0 7.8,3.25 H 7.2 A 0.5,0.5 135 0 0 6.7,3.75 Z M 2.4433135,3.9861937 1.1166865,9.5138063 A 4.2258267,4.2258267 96.747867 0 0 1,10.5 v 3 c 0,0.276142 0.2238576,0.499921 0.5,0.49986 1.1983277,-2.66e-4 2.4816723,-8.9e-5 3.68,7.4e-5 0.2761424,3.7e-5 0.5,-0.223792 0.5,-0.499934 v -4 A 2.0453079,2.0453079 103.73722 0 1 5.9106764,8.5563916 L 5.9693236,8.4436084 A 2.0453079,2.0453079 103.73722 0 0 6.2,7.5 V 4 A 0.5,0.5 45 0 0 5.7,3.5 H 3.06 A 0.63419841,0.63419841 141.74787 0 0 2.4433135,3.9861937 Z M 8.8,4 v 3.5 a 2.0453079,2.0453079 76.262784 0 0 0.2306764,0.9436084 l 0.058647,0.1127832 A 2.0453079,2.0453079 76.262784 0 1 9.32,9.5 v 4 a 0.5,0.5 45 0 0 0.5,0.5 l 3.68,0 c 0.276142,0 0.499896,-0.223858 0.499817,-0.5 -2.85e-4,-1 -1.13e-4,-2 8.4e-5,-3 5.5e-5,-0.276142 -0.05214,-0.7176763 -0.116587,-0.9861937 L 12.556686,3.9861937 A 0.63419841,0.63419841 38.252133 0 0 11.94,3.5 H 9.3 A 0.5,0.5 135 0 0 8.8,4 Z" />
</svg>
