<?xml version="1.0" encoding="UTF-8" standalone="no"?>
<svg
   xmlns:dc="http://purl.org/dc/elements/1.1/"
   xmlns:cc="http://creativecommons.org/ns#"
   xmlns:rdf="http://www.w3.org/1999/02/22-rdf-syntax-ns#"
   xmlns:svg="http://www.w3.org/2000/svg"
   xmlns="http://www.w3.org/2000/svg"
   xmlns:sodipodi="http://sodipodi.sourceforge.net/DTD/sodipodi-0.dtd"
   xmlns:inkscape="http://www.inkscape.org/namespaces/inkscape"
   width="15"
   height="15"
   viewBox="0 0 15 15"
   version="1.1"
   id="svg8"
   sodipodi:docname="Bergwerk-bild.svg"
   inkscape:version="1.0.2-2 (e86c870879, 2021-01-15)">
  <sodipodi:namedview
     pagecolor="#ffffff"
     bordercolor="#666666"
     borderopacity="1"
     objecttolerance="10"
     gridtolerance="10"
     guidetolerance="10"
     inkscape:pageopacity="0"
     inkscape:pageshadow="2"
     inkscape:window-width="1920"
     inkscape:window-height="1000"
     id="namedview7"
     showgrid="true"
     inkscape:zoom="39.220856"
     inkscape:cx="7.5"
     inkscape:cy="7.5"
     inkscape:window-x="-11"
     inkscape:window-y="-11"
     inkscape:window-maximized="1"
     inkscape:current-layer="svg8">
    <inkscape:grid
       type="xygrid"
       id="grid9" />
  </sodipodi:namedview>
  <title
     id="title13">Berkwerk_bildhaft</title>
  <defs
     id="defs2" />
  <metadata
     id="metadata5">
    <rdf:RDF>
      <cc:Work
         rdf:about="">
        <dc:format>image/svg+xml</dc:format>
        <dc:type
           rdf:resource="http://purl.org/dc/dcmitype/StillImage" />
        <dc:title>Berkwerk_bildhaft</dc:title>
        <dc:creator>
          <cc:Agent>
            <dc:title>Carolin Rünger</dc:title>
          </cc:Agent>
        </dc:creator>
        <cc:license
           rdf:resource="http://creativecommons.org/licenses/by/4.0/" />
      </cc:Work>
      <cc:License
         rdf:about="http://creativecommons.org/licenses/by/4.0/">
        <cc:permits
           rdf:resource="http://creativecommons.org/ns#Reproduction" />
        <cc:permits
           rdf:resource="http://creativecommons.org/ns#Distribution" />
        <cc:requires
           rdf:resource="http://creativecommons.org/ns#Notice" />
        <cc:requires
           rdf:resource="http://creativecommons.org/ns#Attribution" />
        <cc:permits
           rdf:resource="http://creativecommons.org/ns#DerivativeWorks" />
      </cc:License>
    </rdf:RDF>
  </metadata>
  <path
     id="rect78-9"
     fill="param(fill)" fill-opacity="param(fill-opacity)" stroke="param(outline)" stroke-opacity="param(outline-opacity)" stroke-width="param(outline-width)"
     d="M 4.7819327,1.1536087 1.1467559,5.1411753 a 0.55283557,0.56021547 0 0 0 -7.96e-5,0.7601988 l 1.4712723,1.6145828 a 0.47148129,0.47777518 0 0 0 0.6927847,-6.2e-6 l 0.7492662,-0.822278 a 0.47149053,0.47778454 0 0 1 0.692792,-1.3e-5 l 1.2558487,1.3781214 a 0.55281834,0.56019801 0 0 1 -7.66e-5,0.7601879 l -3.128558,3.431757 a 0.55245702,0.55983186 0 0 0 1.679e-4,0.759959 l 0.7507439,0.822762 a 0.4719131,0.47821274 0 0 0 0.693127,-1.57e-4 l 3.128558,-3.431757 a 0.47170124,0.47799806 0 0 1 0.6929591,0 L 11.27412,13.84629 a 0.47158701,0.4778823 0 0 0 0.692868,-8.5e-5 l 0.749267,-0.822277 a 0.55283906,0.560219 0 0 0 -9.1e-5,-0.760202 L 9.5876058,8.831969 A 0.55281839,0.56019806 0 0 1 9.5875292,8.0717811 L 10.843378,6.6936597 a 0.47169964,0.47799644 0 0 1 0.692958,-1.422e-4 L 13.00729,8.3063772 A 0.25582163,0.25923663 0 0 0 13.446719,8.1775806 L 13.982991,5.2397505 A 1.0196644,1.0332761 0 0 0 13.729472,4.3508272 L 10.816149,1.1536857 a 0.47148629,0.47778024 0 0 0 -0.692788,-2.5e-6 L 8.652088,2.768266 a 0.55296299,0.56034459 0 0 0 -6.6e-6,0.7602795 l 0.7492662,0.822278 a 0.55295213,0.56033358 0 0 1 -1.4e-5,0.7602725 L 8.145485,6.4892176 a 0.47150812,0.47780236 0 0 1 -0.692806,-2e-7 L 6.1968304,5.1110961 A 0.55295215,0.5603336 0 0 1 6.1968165,4.3508235 L 6.9460826,3.5285455 A 0.55296298,0.56034458 0 0 0 6.946076,2.768266 L 5.4748036,1.1536832 a 0.47158998,0.47788531 0 0 0 -0.6928709,-7.45e-5 z" />
</svg>
