<?xml version="1.0" encoding="UTF-8" standalone="no"?>
<svg
   xmlns:dc="http://purl.org/dc/elements/1.1/"
   xmlns:cc="http://creativecommons.org/ns#"
   xmlns:rdf="http://www.w3.org/1999/02/22-rdf-syntax-ns#"
   xmlns:svg="http://www.w3.org/2000/svg"
   xmlns="http://www.w3.org/2000/svg"
   xmlns:sodipodi="http://sodipodi.sourceforge.net/DTD/sodipodi-0.dtd"
   xmlns:inkscape="http://www.inkscape.org/namespaces/inkscape"
   width="15"
   height="15"
   viewBox="0 0 15 15"
   version="1.1"
   id="svg8"
   sodipodi:docname="Burg_Schloss-bild.svg"
   inkscape:version="1.0.2-2 (e86c870879, 2021-01-15)">
  <sodipodi:namedview
     pagecolor="#ffffff"
     bordercolor="#666666"
     borderopacity="1"
     objecttolerance="10"
     gridtolerance="10"
     guidetolerance="10"
     inkscape:pageopacity="0"
     inkscape:pageshadow="2"
     inkscape:window-width="1920"
     inkscape:window-height="1000"
     id="namedview7"
     showgrid="false"
     inkscape:zoom="39.220856"
     inkscape:cx="7.5"
     inkscape:cy="7.5"
     inkscape:window-x="-11"
     inkscape:window-y="-11"
     inkscape:window-maximized="1"
     inkscape:current-layer="svg8"
     inkscape:document-rotation="0" />
  <title
     id="title12">Burg/Schloss_bildhaft</title>
  <defs
     id="defs2" />
  <metadata
     id="metadata5">
    <rdf:RDF>
      <cc:Work
         rdf:about="">
        <dc:format>image/svg+xml</dc:format>
        <dc:type
           rdf:resource="http://purl.org/dc/dcmitype/StillImage" />
        <dc:title>Burg/Schloss_bildhaft</dc:title>
        <dc:creator>
          <cc:Agent>
            <dc:title>Carolin Rünger</dc:title>
          </cc:Agent>
        </dc:creator>
        <cc:license
           rdf:resource="http://creativecommons.org/licenses/by/4.0/" />
      </cc:Work>
      <cc:License
         rdf:about="http://creativecommons.org/licenses/by/4.0/">
        <cc:permits
           rdf:resource="http://creativecommons.org/ns#Reproduction" />
        <cc:permits
           rdf:resource="http://creativecommons.org/ns#Distribution" />
        <cc:requires
           rdf:resource="http://creativecommons.org/ns#Notice" />
        <cc:requires
           rdf:resource="http://creativecommons.org/ns#Attribution" />
        <cc:permits
           rdf:resource="http://creativecommons.org/ns#DerivativeWorks" />
      </cc:License>
    </rdf:RDF>
  </metadata>
  <path
     id="rect42-3"
     fill="param(fill)" fill-opacity="param(fill-opacity)" stroke="param(outline)" stroke-opacity="param(outline-opacity)" stroke-width="param(outline-width)"
     d="m 2.4926749,1.5 v 2 A 0.50031848,0.5 0 0 0 2.9929934,4 H 4.4939488 C 4.7702671,4 4.942399,4.2177736 4.8786336,4.4864626 4.2569295,7.1061449 3.7298498,9.3937686 3.1085435,12.013543 3.0448222,12.282228 2.7689932,12.5 2.4926749,12.5 h -1.000637 c -0.2763183,0 -0.4958274,0.223816 -0.4919883,0.499933 0.00226,0.16269 0.00452,0.337481 0.00678,0.500168 C 1.0106781,13.776199 1.2391745,14 1.5154928,14 H 13.499682 A 0.50031848,0.5 0 0 0 14,13.5 V 13 A 0.50031848,0.5 0 0 0 13.499682,12.5 H 12.499045 A 0.63170357,0.63130145 0 0 1 11.884133,12.013291 L 10.112045,4.4867086 A 0.39625957,0.39600733 0 0 1 10.497771,4 h 1.500955 a 0.50031848,0.5 0 0 0 0.500319,-0.5 v -2 A 0.50031848,0.5 0 0 0 11.998726,1 H 11.248249 A 0.50031848,0.5 0 0 0 10.74793,1.5 0.50031848,0.5 0 0 1 10.247612,2 0.50031848,0.5 0 0 1 9.7472929,1.5 0.50031848,0.5 0 0 0 9.2469744,1 H 8.4964967 A 0.50031848,0.5 0 0 0 7.9961782,1.5 0.50031848,0.5 0 0 1 7.4958597,2 0.50031848,0.5 0 0 1 6.9955412,1.5 0.50031848,0.5 0 0 0 6.4952228,1 H 5.744745 A 0.50031848,0.5 0 0 0 5.2444265,1.5 0.50031848,0.5 0 0 1 4.7441081,2 0.50031848,0.5 0 0 1 4.2437896,1.5 0.50031848,0.5 0 0 0 3.7434711,1 H 2.9929934 A 0.50031848,0.5 0 0 0 2.4926749,1.5 Z M 7.9885346,9.5750029 C 8.7636089,9.8197005 9.3584998,10.657233 9.475977,12.0006 9.5000265,12.27561 9.2731335,12.5 8.9968152,12.5 H 7.9961782 5.9949043 C 5.718586,12.5 5.4916929,12.275612 5.515742,12.000605 5.6332177,10.657238 6.2281068,9.8197046 7.0031796,9.5750045 c 0.2624536,-0.08286 0.7229041,-0.08286 0.985355,-1.6e-6 z" />
</svg>
