<?xml version="1.0" encoding="UTF-8" standalone="no"?>
<svg
   xmlns:dc="http://purl.org/dc/elements/1.1/"
   xmlns:cc="http://creativecommons.org/ns#"
   xmlns:rdf="http://www.w3.org/1999/02/22-rdf-syntax-ns#"
   xmlns:svg="http://www.w3.org/2000/svg"
   xmlns="http://www.w3.org/2000/svg"
   xmlns:sodipodi="http://sodipodi.sourceforge.net/DTD/sodipodi-0.dtd"
   xmlns:inkscape="http://www.inkscape.org/namespaces/inkscape"
   width="15"
   height="15"
   viewBox="0 0 15 15"
   version="1.1"
   id="svg8"
   sodipodi:docname="Denkmal-geo.svg"
   inkscape:version="1.0.2-2 (e86c870879, 2021-01-15)">
  <sodipodi:namedview
     pagecolor="#ffffff"
     bordercolor="#666666"
     borderopacity="1"
     objecttolerance="10"
     gridtolerance="10"
     guidetolerance="10"
     inkscape:pageopacity="0"
     inkscape:pageshadow="2"
     inkscape:window-width="1920"
     inkscape:window-height="1000"
     id="namedview7"
     showgrid="true"
     inkscape:zoom="39.220856"
     inkscape:cx="7.5"
     inkscape:cy="7.5"
     inkscape:window-x="-11"
     inkscape:window-y="-11"
     inkscape:window-maximized="1"
     inkscape:current-layer="svg8"
     inkscape:document-rotation="0">
    <inkscape:grid
       type="xygrid"
       id="grid8" />
  </sodipodi:namedview>
  <title
     id="title10">Denkmal_geometrisch</title>
  <defs
     id="defs2" />
  <metadata
     id="metadata5">
    <rdf:RDF>
      <cc:Work
         rdf:about="">
        <dc:format>image/svg+xml</dc:format>
        <dc:type
           rdf:resource="http://purl.org/dc/dcmitype/StillImage" />
        <dc:title>Denkmal_geometrisch</dc:title>
        <dc:creator>
          <cc:Agent>
            <dc:title>Carolin Rünger</dc:title>
          </cc:Agent>
        </dc:creator>
        <cc:license
           rdf:resource="http://creativecommons.org/licenses/by/4.0/" />
      </cc:Work>
      <cc:License
         rdf:about="http://creativecommons.org/licenses/by/4.0/">
        <cc:permits
           rdf:resource="http://creativecommons.org/ns#Reproduction" />
        <cc:permits
           rdf:resource="http://creativecommons.org/ns#Distribution" />
        <cc:requires
           rdf:resource="http://creativecommons.org/ns#Notice" />
        <cc:requires
           rdf:resource="http://creativecommons.org/ns#Attribution" />
        <cc:permits
           rdf:resource="http://creativecommons.org/ns#DerivativeWorks" />
      </cc:License>
    </rdf:RDF>
  </metadata>
  <path
     id="path886"
     fill="param(fill)" fill-opacity="param(fill-opacity)" stroke="param(outline)" stroke-opacity="param(outline-opacity)" stroke-width="param(outline-width)"
     d="m 7.0032702,1.0408854 c -0.9821787,0.1981295 -1.7558703,0.9723031 -1.9539049,1.955111 -0.0545,0.2704733 -0.054133,0.7237854 8.83e-4,0.9940987 0.1098934,0.5399412 0.3954634,1.029244 0.8114278,1.3903205 0.2082453,0.1807668 0.3304997,0.4981769 0.2350771,0.7574777 L 3.9286374,12.029514 A 0.71694306,0.71741152 0 0 1 3.2558594,12.49902 H 3 a 0.5,0.5003267 0 0 0 -0.5,0.500326 v 0.500327 A 0.5,0.5003267 0 0 0 3,14 h 9 a 0.5,0.5003267 0 0 0 0.5,-0.500327 V 12.999346 A 0.5,0.5003267 0 0 0 12,12.49902 H 11.765625 A 0.71886973,0.71933945 0 0 1 11.091666,12.02995 L 8.9063805,6.1374566 C 8.8103058,5.878397 8.9319363,5.5610025 9.14002,5.3800476 9.5553659,5.0188524 9.8403949,4.5297231 9.9499717,3.990115 10.004868,3.7197786 10.005133,3.2665114 9.9506525,2.9960848 9.7526524,2.0132643 8.9789843,1.2390672 7.9968181,1.0409032 7.7265215,0.98636767 7.2735202,0.98636944 7.0032702,1.0408854 Z" />
</svg>
