<svg xmlns="http://www.w3.org/2000/svg" width="15" height="15" viewBox="0 0 15 15">
  <path d="M8,13V5.509a.741.741,0,0,0,.25-.551.75.75,0,0,0-1.5,0A.741.741,0,0,0,7,5.509V13H4v1h7V13Z"/>
  <path d="M6.25,4.958a1.25,1.25,0,1,1,2.412.435l.745.745a2.225,2.225,0,0,0,.343-1.18,2.25,2.25,0,0,0-4.5,0,2.225,2.225,0,0,0,.343,1.18l.745-.745A1.24,1.24,0,0,1,6.25,4.958Z"/>
  <path d="M4.75,4.958A2.75,2.75,0,1,1,9.773,6.5l.706.707a3.711,3.711,0,0,0,.771-2.252,3.75,3.75,0,0,0-7.5,0A3.711,3.711,0,0,0,4.521,7.21L5.227,6.5A2.735,2.735,0,0,1,4.75,4.958Z"/>
</svg>
