<?xml version="1.0" encoding="UTF-8" standalone="no"?>
<svg
   xmlns:dc="http://purl.org/dc/elements/1.1/"
   xmlns:cc="http://creativecommons.org/ns#"
   xmlns:rdf="http://www.w3.org/1999/02/22-rdf-syntax-ns#"
   xmlns:svg="http://www.w3.org/2000/svg"
   xmlns="http://www.w3.org/2000/svg"
   xmlns:sodipodi="http://sodipodi.sourceforge.net/DTD/sodipodi-0.dtd"
   xmlns:inkscape="http://www.inkscape.org/namespaces/inkscape"
   width="15"
   height="15"
   viewBox="0 0 15 15"
   version="1.1"
   id="svg8"
   sodipodi:docname="Hallenbad-geo.svg"
   inkscape:version="1.0.2-2 (e86c870879, 2021-01-15)">
  <sodipodi:namedview
     pagecolor="#ffffff"
     bordercolor="#666666"
     borderopacity="1"
     objecttolerance="10"
     gridtolerance="10"
     guidetolerance="10"
     inkscape:pageopacity="0"
     inkscape:pageshadow="2"
     inkscape:window-width="1920"
     inkscape:window-height="1000"
     id="namedview7"
     showgrid="false"
     inkscape:zoom="55.466667"
     inkscape:cx="7.5"
     inkscape:cy="7.5"
     inkscape:window-x="-11"
     inkscape:window-y="-11"
     inkscape:window-maximized="1"
     inkscape:current-layer="svg8" />
  <title
     id="title12">Hallenbad_geometrisch</title>
  <defs
     id="defs2" />
  <metadata
     id="metadata5">
    <rdf:RDF>
      <cc:Work
         rdf:about="">
        <dc:format>image/svg+xml</dc:format>
        <dc:type
           rdf:resource="http://purl.org/dc/dcmitype/StillImage" />
        <dc:title>Hallenbad_geometrisch</dc:title>
        <dc:creator>
          <cc:Agent>
            <dc:title>Carolin Rünger</dc:title>
          </cc:Agent>
        </dc:creator>
        <cc:license
           rdf:resource="http://creativecommons.org/licenses/by/4.0/" />
      </cc:Work>
      <cc:License
         rdf:about="http://creativecommons.org/licenses/by/4.0/">
        <cc:permits
           rdf:resource="http://creativecommons.org/ns#Reproduction" />
        <cc:permits
           rdf:resource="http://creativecommons.org/ns#Distribution" />
        <cc:requires
           rdf:resource="http://creativecommons.org/ns#Notice" />
        <cc:requires
           rdf:resource="http://creativecommons.org/ns#Attribution" />
        <cc:permits
           rdf:resource="http://creativecommons.org/ns#DerivativeWorks" />
      </cc:License>
    </rdf:RDF>
  </metadata>
  <path
     id="path17"
     fill="param(fill)" fill-opacity="param(fill-opacity)" stroke="param(outline)" stroke-opacity="param(outline-opacity)" stroke-width="param(outline-width)"
     d="M 7.0002304,1.0156985 C 3.8070619,1.2583721 1.2583689,3.8070669 1.0156981,7.0002362 c -0.0209309,0.2754155 -0.0209309,0.7241151 4e-7,0.9995338 0.2426736,3.193168 2.7913684,5.741861 5.9845377,5.984532 0.2754155,0.02093 0.7241151,0.02093 0.9995338,-10e-7 3.193168,-0.242673 5.741861,-2.791368 5.984532,-5.9845368 0.02093,-0.2754155 0.02093,-0.7241151 -10e-7,-0.9995338 C 13.741628,3.8070619 11.192933,1.2583689 7.9997642,1.0156981 7.7243487,0.9947672 7.2756491,0.9947672 7.0002304,1.0156985 Z m 0.971549,1.3041961 4.0745506,1.8345059 a 0.77384172,0.77384172 0 0 1 0.456147,0.7056208 v 0.00195 A 0.3233836,0.3233836 0 0 1 12.04633,5.1568499 L 7.9717794,3.322344 A 1.1145549,1.1145549 0 0 0 7.0590082,3.3212784 L 2.9541483,5.1579155 A 0.32421228,0.32421228 0 0 1 2.4975236,4.8619754 v -0.00195 A 0.7718638,0.7718638 0 0 1 2.9541483,4.1554661 L 7.0590082,2.318829 a 1.1145549,1.1145549 0 0 1 0.9127712,0.00107 z M 3.566917,6.0738134 c 0.1991638,0.058536 0.3856694,0.1454024 0.5625927,0.2380149 0.2446038,0.1280405 0.6358723,0.3480143 0.8929718,0.4487732 0.049135,0.019257 0.097129,0.036748 0.1438697,0.052402 0.2608589,0.087362 0.7171249,0.086768 0.9777282,-0.00141 0.046293,-0.015664 0.093818,-0.033135 0.1424759,-0.052339 0.2568414,-0.1013683 0.6482194,-0.3213661 0.8933093,-0.4488721 0.178483,-0.092854 0.3669112,-0.1798512 0.5678793,-0.2381099 0.2642876,-0.076614 0.721603,-0.076056 0.9858181,0.00142 0.1997577,0.058579 0.3869348,0.145579 0.5644089,0.2383251 0.2446942,0.1278747 0.6359588,0.3478533 0.8929951,0.4487771 0.04852,0.019051 0.09592,0.036373 0.142082,0.051894 0.260749,0.087661 0.717016,0.087084 0.977731,-7.93e-4 0.04686,-0.015797 0.09499,-0.03344 0.144262,-0.052849 0.256904,-0.101202 0.656809,-0.3044143 0.907738,-0.4200209 l 0.185598,-0.085507 a 0.32031431,0.32031431 0 0 1 0.454347,0.2909308 0.83036711,0.83036711 0 0 1 -0.442237,0.7340737 c -0.131329,0.069438 -0.433174,0.2357611 -0.682578,0.3545738 -0.176055,0.08387 -0.36172,0.1596868 -0.55952,0.2104214 -0.266797,0.068432 -0.722341,0.069097 -0.98922,5.59e-4 C 10.131854,7.7934033 9.946876,7.7174769 9.7713956,7.6335076 9.522313,7.514319 9.1309091,7.2953541 8.8790035,7.1820088 8.8260089,7.1581638 8.7743346,7.1361268 8.724109,7.1162272 8.4687489,7.0150523 8.0123292,7.0148667 7.7571129,7.1164553 7.7074363,7.1362291 7.6563318,7.1581045 7.6039201,7.1817562 7.3521874,7.2953556 6.9606694,7.5142483 6.7111928,7.6329053 6.5345796,7.7169067 6.3482383,7.792844 6.1498378,7.8436173 5.8829979,7.9119052 5.4274726,7.9126173 5.1605941,7.8440791 4.963279,7.7934058 4.7783007,7.717479 4.6028203,7.633509 4.3537382,7.5143196 3.9623557,7.2953282 3.7105361,7.1817905 3.6581401,7.1581669 3.6070512,7.1363204 3.5573849,7.116572 3.3021592,7.0150882 2.8457466,7.0147584 2.5903006,7.1158279 2.5433091,7.1344206 2.4950473,7.1548841 2.4456275,7.1769472 2.1934449,7.289532 1.9972759,7.1744189 1.9972759,6.8981397 c 0,-0.2762837 0.1954145,-0.6101694 0.4445083,-0.7296121 0.048116,-0.023072 0.096959,-0.045019 0.1466297,-0.065002 C 2.8428768,6.0011507 3.302753,5.9961729 3.566917,6.0738134 Z m 0,1.5007431 c 0.1991637,0.058537 0.3856694,0.1454025 0.5625926,0.2380149 0.2446038,0.1280406 0.6358723,0.3480144 0.8929718,0.4487733 0.049135,0.019256 0.097129,0.036748 0.1438697,0.052402 0.260859,0.087362 0.7171251,0.086768 0.9777284,-0.00141 0.046293,-0.015664 0.093818,-0.033135 0.1424759,-0.052339 0.2568413,-0.1013661 0.6482193,-0.3213641 0.8933093,-0.44887 0.178483,-0.092854 0.3669111,-0.1798512 0.5678792,-0.23811 0.2642876,-0.076614 0.721603,-0.076056 0.985818,0.00142 0.1997577,0.058579 0.3869348,0.1455792 0.5644089,0.2383253 0.2446943,0.1278746 0.6359587,0.3478532 0.8929942,0.4487771 0.04852,0.019051 0.09592,0.036374 0.142083,0.051894 0.260748,0.087661 0.717016,0.087084 0.977731,-7.93e-4 0.04686,-0.015797 0.09499,-0.03344 0.144262,-0.052849 0.256904,-0.101202 0.656809,-0.3044145 0.907738,-0.420021 l 0.185598,-0.085507 a 0.32031431,0.32031431 0 0 1 0.454347,0.2909287 0.83036711,0.83036711 0 0 1 -0.442237,0.7340737 c -0.131329,0.069438 -0.433174,0.2357616 -0.682578,0.3545743 -0.176054,0.083871 -0.36172,0.1596866 -0.55952,0.2104209 -0.266797,0.068432 -0.722341,0.069097 -0.98922,5.59e-4 C 10.131854,9.2941463 9.946876,9.2182198 9.7713956,9.1342506 9.522313,9.015062 9.1309091,8.7960971 8.8790035,8.6827517 8.8260089,8.6589067 8.7743346,8.6368698 8.724109,8.6169702 8.4687489,8.5157953 8.0123292,8.5156097 7.7571129,8.6171983 7.7074363,8.6369721 7.6563318,8.6588475 7.6039201,8.6824992 7.3521874,8.7960986 6.9606694,9.0149913 6.7111928,9.1336483 6.5345796,9.2176497 6.3482383,9.2935869 6.1498378,9.3443603 5.8829979,9.4126482 5.4274726,9.4133602 5.1605941,9.3448221 4.963279,9.2941488 4.7783007,9.2182219 4.6028203,9.134252 4.3537382,9.0150626 3.9623557,8.7960711 3.7105361,8.6825335 3.6581401,8.6589098 3.6070512,8.6370634 3.5573849,8.6173148 3.3021592,8.5158312 2.8457466,8.5155013 2.5903006,8.6165709 2.5433091,8.6351636 2.4950473,8.6556271 2.4456275,8.6776901 2.1934449,8.790275 1.9972759,8.6751619 1.9972759,8.3988827 c 0,-0.2762837 0.1954145,-0.6101694 0.4445083,-0.7296121 0.048116,-0.023072 0.096959,-0.045019 0.1466297,-0.065002 C 2.8428768,7.5018937 3.302753,7.4969159 3.566917,7.5745565 Z m 0,1.5007429 c 0.1991637,0.058536 0.3856694,0.1454025 0.5625927,0.238015 0.2446037,0.1280405 0.6358724,0.348014 0.8929719,0.4487729 0.049135,0.019256 0.097129,0.036748 0.1438696,0.052402 0.2608589,0.087362 0.7171249,0.086768 0.9777282,-0.00141 0.046293,-0.015664 0.093818,-0.033135 0.1424758,-0.052339 0.2568413,-0.1013663 0.6482195,-0.3213638 0.8933094,-0.4488697 0.178483,-0.092854 0.3669112,-0.1798512 0.5678793,-0.23811 0.2642876,-0.076614 0.721603,-0.076056 0.9858181,0.00143 0.1997577,0.058579 0.3869348,0.1455791 0.5644089,0.2383253 0.2446942,0.1278745 0.6359588,0.3478528 0.8929951,0.4487767 0.04852,0.019051 0.09592,0.036374 0.142082,0.051894 0.260749,0.087661 0.717016,0.087084 0.977731,-7.929e-4 0.04686,-0.015797 0.09499,-0.03344 0.144262,-0.052849 0.256904,-0.101202 0.656809,-0.3044141 0.907738,-0.4200206 l 0.185598,-0.085507 a 0.32031431,0.32031431 0 0 1 0.454347,0.2909187 v 10e-8 a 0.83036711,0.83036711 0 0 1 -0.442237,0.7340731 c -0.131329,0.06943 -0.433174,0.235762 -0.682578,0.354574 -0.176055,0.08387 -0.36172,0.159687 -0.55952,0.210422 -0.266797,0.06843 -0.722341,0.06909 -0.98922,5.58e-4 -0.197315,-0.05068 -0.3822929,-0.1266 -0.5577734,-0.21057 -0.2490826,-0.119188 -0.6404865,-0.338153 -0.892392,-0.451498 -0.052994,-0.02384 -0.104669,-0.04588 -0.1548946,-0.06578 -0.2553601,-0.101175 -0.7117798,-0.10136 -0.9669962,2.28e-4 -0.049677,0.01977 -0.100781,0.04165 -0.1531927,0.0653 -0.2517328,0.1136 -0.6432507,0.332492 -0.8927273,0.451149 -0.1766132,0.084 -0.3629545,0.159939 -0.561355,0.210712 -0.2668399,0.06828 -0.7223652,0.069 -0.9892437,4.62e-4 -0.1973151,-0.05067 -0.3822934,-0.1266 -0.5577737,-0.21057 -0.2490822,-0.119191 -0.6404647,-0.338182 -0.8922843,-0.45172 -0.052396,-0.02362 -0.1034849,-0.04547 -0.1531512,-0.06522 -0.2552257,-0.101484 -0.7116384,-0.101814 -0.9670845,-7.45e-4 -0.046992,0.01859 -0.095254,0.03906 -0.1446735,0.06112 -0.2521825,0.112585 -0.448351,-0.0025 -0.448351,-0.2788058 v -5e-7 c 0,-0.2762792 0.1954145,-0.6101694 0.4445083,-0.7296121 0.048116,-0.023072 0.096959,-0.045019 0.1466297,-0.065002 C 2.8428768,9.0026379 3.302753,8.99766 3.566917,9.0753006 Z" />
</svg>
