<?xml version="1.0" encoding="UTF-8" standalone="no"?>
<svg
   xmlns:dc="http://purl.org/dc/elements/1.1/"
   xmlns:cc="http://creativecommons.org/ns#"
   xmlns:rdf="http://www.w3.org/1999/02/22-rdf-syntax-ns#"
   xmlns:svg="http://www.w3.org/2000/svg"
   xmlns="http://www.w3.org/2000/svg"
   xmlns:sodipodi="http://sodipodi.sourceforge.net/DTD/sodipodi-0.dtd"
   xmlns:inkscape="http://www.inkscape.org/namespaces/inkscape"
   width="15"
   height="15"
   viewBox="0 0 15 15"
   version="1.1"
   id="svg8"
   sodipodi:docname="Hallenbad-bild.svg"
   inkscape:version="1.0.2-2 (e86c870879, 2021-01-15)">
  <sodipodi:namedview
     pagecolor="#ffffff"
     bordercolor="#666666"
     borderopacity="1"
     objecttolerance="10"
     gridtolerance="10"
     guidetolerance="10"
     inkscape:pageopacity="0"
     inkscape:pageshadow="2"
     inkscape:window-width="1920"
     inkscape:window-height="1000"
     id="namedview7"
     showgrid="false"
     inkscape:zoom="39.220856"
     inkscape:cx="7.5"
     inkscape:cy="7.5"
     inkscape:window-x="-11"
     inkscape:window-y="-11"
     inkscape:window-maximized="1"
     inkscape:current-layer="svg8" />
  <title
     id="title12">Hallenbad_bildhaft</title>
  <defs
     id="defs2" />
  <metadata
     id="metadata5">
    <rdf:RDF>
      <cc:Work
         rdf:about="">
        <dc:format>image/svg+xml</dc:format>
        <dc:type
           rdf:resource="http://purl.org/dc/dcmitype/StillImage" />
        <dc:title>Hallenbad_bildhaft</dc:title>
        <dc:creator>
          <cc:Agent>
            <dc:title>Carolin Rünger</dc:title>
          </cc:Agent>
        </dc:creator>
        <cc:license
           rdf:resource="http://creativecommons.org/licenses/by/4.0/" />
      </cc:Work>
      <cc:License
         rdf:about="http://creativecommons.org/licenses/by/4.0/">
        <cc:permits
           rdf:resource="http://creativecommons.org/ns#Reproduction" />
        <cc:permits
           rdf:resource="http://creativecommons.org/ns#Distribution" />
        <cc:requires
           rdf:resource="http://creativecommons.org/ns#Notice" />
        <cc:requires
           rdf:resource="http://creativecommons.org/ns#Attribution" />
        <cc:permits
           rdf:resource="http://creativecommons.org/ns#DerivativeWorks" />
      </cc:License>
    </rdf:RDF>
  </metadata>
  <path
     id="path4-5"
     fill="param(fill)" fill-opacity="param(fill-opacity)" stroke="param(outline)" stroke-opacity="param(outline-opacity)" stroke-width="param(outline-width)"
     d="M 7.0451271,1.1006386 1.4539126,3.7055998 A 0.78133922,0.78872724 0 0 0 1,4.4217321 V 4.9263853 A 0.31986893,0.32289348 0 0 0 1.4539126,5.2195595 L 7.0451271,2.6145983 a 1.0831733,1.0934153 0 0 1 0.9078253,0 L 13.544167,5.2195595 A 0.31986893,0.32289348 0 0 0 13.99808,4.9263853 V 4.4217321 A 0.78133922,0.78872724 0 0 0 13.544167,3.7055998 L 7.9529524,1.1006386 a 1.0831733,1.0934153 0 0 0 -0.9078253,0 z M 9.7782014,3.8084294 C 8.3470933,4.0486006 7.177972,4.2440432 5.7338365,4.5060538 5.4620955,4.5553559 5.0094268,4.6695785 4.8383435,4.8845148 4.8219925,4.905057 4.6682223,5.1529432 4.7512845,5.4115212 4.7573384,5.4303668 4.8906826,5.6313786 5.0523891,5.8572789 5.2523216,6.13658 5.4582133,6.4123457 5.6649275,6.6878608 5.8315895,6.9099934 5.759804,7.1765968 5.5048473,7.2835663 4.5147497,7.6989713 3.5916925,8.0903641 2.6196419,8.5017134 2.365011,8.6094673 2.38397,8.710372 2.6510173,8.7796801 c 0.2400444,0.062301 0.4651087,0.1511407 0.6784688,0.2473956 0.2519522,0.1136653 0.6517152,0.3175949 0.9055837,0.427102 0.1265347,0.054581 0.2474066,0.1020612 0.3613014,0.139827 0.2611809,0.086603 0.7161202,0.086116 0.9770109,-0.00154 C 5.6860383,9.5546143 5.8054964,9.5071877 5.9306872,9.4527869 6.1842087,9.3426209 6.5838979,9.1385608 6.8351107,9.0229349 7.09866,8.9016309 7.3801876,8.7905108 7.6858231,8.728899 7.9560022,8.6744346 8.4085506,8.6748664 8.6785556,8.7308071 8.9500376,8.7870537 9.201585,8.8829019 9.4389623,8.9897785 9.6909413,9.1032294 9.7500247,9.0302738 9.5773056,8.8128299 8.8460438,7.892211 8.1098774,6.9653445 7.4429579,6.1100902 7.2721859,5.8910932 7.3548159,5.6738148 7.6267899,5.6258023 8.5349237,5.4654862 9.3422125,5.3250955 10.349814,5.1288875 c 0.0023,-4.403e-4 0.0059,-0.00145 0.008,-0.00229 0.0735,-0.028244 0.189958,-0.093008 0.259163,-0.1488083 C 10.938081,4.7210999 10.952843,4.3481744 10.65159,4.051601 10.480093,3.8837713 10.045466,3.7620819 9.783436,3.8075368 c -0.00104,1.807e-4 -0.00339,5.821e-4 -0.00524,8.926e-4 z M 10.3542,5.7375207 C 9.9068305,5.8663241 9.5483483,6.1647658 9.380144,6.545449 9.2684934,6.7981388 9.2685394,7.2724063 9.3800216,7.5251518 c 0.1681504,0.3812206 0.5266907,0.680545 0.9741604,0.809753 0.264633,0.076414 0.722564,0.076779 0.987286,7.961e-4 0.448578,-0.1287553 0.808055,-0.4284758 0.976464,-0.8104782 0.111447,-0.252797 0.111491,-0.7270516 -8.2e-5,-0.9797522 -0.168433,-0.381482 -0.527834,-0.6803413 -0.976304,-0.8087178 -0.264803,-0.075801 -0.72268,-0.075433 -0.987346,7.68e-4 z m 3.195299,4.124439 -0.395262,0.1962913 c -0.247744,0.123032 -0.64814,0.325562 -0.901323,0.436675 -0.119818,0.05259 -0.234367,0.09858 -0.342602,0.135595 -0.260324,0.08904 -0.715471,0.08975 -0.976092,0.0014 -0.107339,-0.0364 -0.220924,-0.08163 -0.339766,-0.133473 C 10.341092,10.387932 9.9426577,10.181304 9.6921408,10.064148 9.4369594,9.9447825 9.1649536,9.8354466 8.8697653,9.7734845 8.6000505,9.7168693 8.1473432,9.7163487 7.8772889,9.7720148 7.580712,9.8331479 7.3071304,9.9418395 7.0508285,10.060863 c -0.2507044,0.116423 -0.6491094,0.322963 -0.9022149,0.434256 -0.1190911,0.05236 -0.2328946,0.09819 -0.3404554,0.13511 -0.2602177,0.08933 -0.7153675,0.09004 -0.976094,0.0019 C 4.7240498,10.595705 4.6097177,10.550301 4.4901489,10.498239 4.2367121,10.387888 3.8382825,10.181251 3.5878349,10.063944 3.3332975,9.9447225 3.0621773,9.8355019 2.7676682,9.773557 2.4979804,9.7168328 2.0449519,9.7161172 1.7756279,9.7749983 1.6684259,9.7984354 1.5645629,9.8283912 1.4633407,9.8628084 1.2018402,9.9517225 1,10.277447 1,10.556159 v 0.166707 c 0,0.278712 0.1995924,0.401926 0.4528038,0.290879 0.1156453,-0.05072 0.226347,-0.09524 0.3311315,-0.131311 0.2601174,-0.08955 0.7153624,-0.08927 0.9754389,6.13e-4 0.1076855,0.03722 0.2215968,0.08338 0.3408166,0.136065 0.2528498,0.111729 0.6512573,0.318337 0.901813,0.435407 0.2551066,0.119197 0.5270221,0.228248 0.8222498,0.289697 0.2698035,0.05616 0.7225111,0.0555 0.9924661,-6.65e-4 0.296385,-0.06167 0.5701333,-0.170628 0.8265693,-0.289768 0.2506865,-0.116469 0.6490999,-0.322963 0.9019807,-0.434781 0.1192344,-0.05273 0.2331703,-0.09894 0.3408473,-0.136188 0.2599747,-0.08993 0.7152308,-0.08966 0.9754165,-5.9e-5 0.1083593,0.03731 0.2230152,0.08365 0.3429612,0.136552 0.2529255,0.111547 0.651343,0.318141 0.9018993,0.43521 0.255106,0.119196 0.527022,0.228247 0.822249,0.289698 0.269803,0.05616 0.722524,0.05554 0.992455,-7.36e-4 0.295708,-0.06165 0.568567,-0.170497 0.824358,-0.289525 0.250616,-0.116619 0.650385,-0.319928 0.898221,-0.442772 a 0.7199903,0.72679824 0 0 0 0.354403,-0.68032 V 10.143843 A 0.31120514,0.31414777 0 0 0 13.549499,9.8619597 Z m 0,2.2159433 -0.395262,0.196291 c -0.247744,0.123033 -0.648143,0.325583 -0.901499,0.43629 -0.119687,0.0523 -0.234116,0.09796 -0.342245,0.134701 -0.260521,0.08851 -0.715634,0.08921 -0.976449,0.0014 C 10.826811,12.810475 10.713345,12.765555 10.594633,12.714 10.341096,12.603866 9.9426579,12.397217 9.692141,12.280062 9.4369595,12.160725 9.1649537,12.05139 8.8697654,11.989429 c -0.2697149,-0.05661 -0.7224222,-0.05714 -0.9924766,-0.0015 -0.296577,0.06113 -0.5701588,0.169825 -0.8264605,0.288847 -0.2507044,0.116423 -0.6491122,0.322983 -0.9023909,0.433871 -0.1189603,0.05208 -0.2326436,0.09758 -0.3400979,0.134218 -0.2604143,0.0888 -0.7155311,0.08951 -0.9764505,0.0019 C 4.7239799,12.810658 4.6097667,12.765575 4.4903272,12.713796 4.2367169,12.603852 3.8382826,12.397195 3.5878351,12.279888 3.3332977,12.160666 3.0621774,12.051446 2.7676682,11.989501 c -0.2696878,-0.05672 -0.7227163,-0.05744 -0.9920403,0.0014 -0.107202,0.02344 -0.211065,0.05339 -0.3122872,0.08781 C 1.2018402,12.167667 1,12.493391 1,12.772102 v 0.166707 c 0,0.278712 0.1995924,0.401926 0.4528039,0.29088 0.1156453,-0.05072 0.2263469,-0.09524 0.3311314,-0.131312 0.2601175,-0.08956 0.7153623,-0.08928 0.9754387,6.14e-4 0.1076857,0.03722 0.2215971,0.08338 0.3408171,0.136065 0.2528497,0.111729 0.651268,0.318329 0.9019685,0.435081 0.2550484,0.118776 0.5268983,0.227215 0.822048,0.288299 0.2698738,0.05586 0.7225312,0.0552 0.9925537,-6.65e-4 0.2963078,-0.06129 0.5699904,-0.169647 0.8263685,-0.288368 0.2508327,-0.116153 0.6492589,-0.32264 0.9021396,-0.434457 0.1192345,-0.05273 0.2331706,-0.09894 0.3408477,-0.136189 0.2599746,-0.08993 0.7152307,-0.08966 0.9754162,-5.9e-5 0.1083595,0.03731 0.2230155,0.08365 0.3429617,0.136553 0.2529254,0.111548 0.6513537,0.318133 0.902055,0.434885 0.255048,0.118775 0.526898,0.227214 0.822047,0.288298 0.269874,0.05586 0.722544,0.05523 0.992542,-7.36e-4 0.295631,-0.06128 0.568424,-0.169517 0.824158,-0.288124 0.250762,-0.116302 0.650544,-0.319603 0.898379,-0.442449 a 0.71999258,0.72680054 0 0 0 0.354404,-0.680321 v -0.187018 a 0.3112049,0.31414753 0 0 0 -0.448581,-0.281883 z" />
</svg>
