<?xml version="1.0" encoding="UTF-8" standalone="no"?>
<svg
   xmlns:dc="http://purl.org/dc/elements/1.1/"
   xmlns:cc="http://creativecommons.org/ns#"
   xmlns:rdf="http://www.w3.org/1999/02/22-rdf-syntax-ns#"
   xmlns:svg="http://www.w3.org/2000/svg"
   xmlns="http://www.w3.org/2000/svg"
   width="15"
   height="15"
   viewBox="0 0 15 15"
   version="1.1"
   id="svg8">
  <title
     id="title14">Hotel_bildhaft</title>
  <defs
     id="defs2" />
  <metadata
     id="metadata5">
    <rdf:RDF>
      <cc:Work
         rdf:about="">
        <dc:format>image/svg+xml</dc:format>
        <dc:type
           rdf:resource="http://purl.org/dc/dcmitype/StillImage" />
        <dc:title>Hotel_bildhaft</dc:title>
        <dc:creator>
          <cc:Agent>
            <dc:title>Carolin Rünger</dc:title>
          </cc:Agent>
        </dc:creator>
        <cc:license
           rdf:resource="http://creativecommons.org/licenses/by/4.0/" />
      </cc:Work>
      <cc:License
         rdf:about="http://creativecommons.org/licenses/by/4.0/">
        <cc:permits
           rdf:resource="http://creativecommons.org/ns#Reproduction" />
        <cc:permits
           rdf:resource="http://creativecommons.org/ns#Distribution" />
        <cc:requires
           rdf:resource="http://creativecommons.org/ns#Notice" />
        <cc:requires
           rdf:resource="http://creativecommons.org/ns#Attribution" />
        <cc:permits
           rdf:resource="http://creativecommons.org/ns#DerivativeWorks" />
      </cc:License>
    </rdf:RDF>
  </metadata>
  <path
     id="path17-0"
     fill="param(fill)" fill-opacity="param(fill-opacity)" stroke="param(outline)" stroke-opacity="param(outline-opacity)" stroke-width="param(outline-width)"
     d="m 1,3.5 v 8 A 0.5,0.5 45 0 0 1.5,12 h 1 A 0.5,0.5 135 0 0 3,11.5 v -1 A 0.5,0.5 135 0 1 3.5,10 h 8 a 0.5,0.5 45 0 1 0.5,0.5 v 1 a 0.5,0.5 45 0 0 0.5,0.5 h 1 A 0.5,0.5 135 0 0 14,11.5 l 0,-5 C 14,6.2238576 13.919102,5.7906893 13.794203,5.544525 13.561542,5.0859719 13.231332,4.5801393 12.880221,4.2664245 12.675631,4.0836252 12.23708,4 11.960938,4 H 7 A 0.5,0.5 135 0 0 6.5,4.5 v 3 A 0.5,0.5 135 0 1 6,8 H 3.5 C 3.2238576,8 2.9995302,7.7761429 2.9988749,7.5000013 2.995698,6.1612178 2.9916752,4.8387618 2.9973954,3.4999846 2.9985753,3.2238495 2.7761424,3 2.5,3 h -1 A 0.5,0.5 135 0 0 1,3.5 Z M 4.2591448,4.5821541 C 3.8255919,4.7322258 3.4822587,5.0755479 3.3321717,5.5090938 c -0.089927,0.2597666 -0.089926,0.7220193 -1.76e-5,0.9817614 0.1500717,0.4335529 0.4933938,0.7768861 0.9269397,0.9269731 0.2597666,0.089927 0.7220193,0.089926 0.9817614,1.76e-5 C 5.6744081,7.2677742 6.0177413,6.9244521 6.1678283,6.4909062 6.2577555,6.2311396 6.2577541,5.7688869 6.1678459,5.5091448 6.0177742,5.0755919 5.6744521,4.7322587 5.2409062,4.5821717 4.9811396,4.4922445 4.5188869,4.4922459 4.2591448,4.5821541 Z" />
</svg>
