<?xml version="1.0" encoding="UTF-8" standalone="no"?>
<svg
   xmlns:dc="http://purl.org/dc/elements/1.1/"
   xmlns:cc="http://creativecommons.org/ns#"
   xmlns:rdf="http://www.w3.org/1999/02/22-rdf-syntax-ns#"
   xmlns:svg="http://www.w3.org/2000/svg"
   xmlns="http://www.w3.org/2000/svg"
   xmlns:sodipodi="http://sodipodi.sourceforge.net/DTD/sodipodi-0.dtd"
   xmlns:inkscape="http://www.inkscape.org/namespaces/inkscape"
   width="15"
   height="15"
   viewBox="0 0 15 15"
   version="1.1"
   id="svg8"
   sodipodi:docname="Höhle-geo.svg"
   inkscape:version="1.0.2-2 (e86c870879, 2021-01-15)">
  <sodipodi:namedview
     pagecolor="#ffffff"
     bordercolor="#666666"
     borderopacity="1"
     objecttolerance="10"
     gridtolerance="10"
     guidetolerance="10"
     inkscape:pageopacity="0"
     inkscape:pageshadow="2"
     inkscape:window-width="1920"
     inkscape:window-height="1000"
     id="namedview7"
     showgrid="false"
     inkscape:zoom="55.466667"
     inkscape:cx="7.5"
     inkscape:cy="7.5"
     inkscape:window-x="-11"
     inkscape:window-y="-11"
     inkscape:window-maximized="1"
     inkscape:current-layer="svg8" />
  <title
     id="title10">Höhle_geometrisch</title>
  <defs
     id="defs2" />
  <metadata
     id="metadata5">
    <rdf:RDF>
      <cc:Work
         rdf:about="">
        <dc:format>image/svg+xml</dc:format>
        <dc:type
           rdf:resource="http://purl.org/dc/dcmitype/StillImage" />
        <dc:title>Höhle_geometrisch</dc:title>
        <dc:creator>
          <cc:Agent>
            <dc:title>Carolin Rünger</dc:title>
          </cc:Agent>
        </dc:creator>
        <cc:license
           rdf:resource="http://creativecommons.org/licenses/by/4.0/" />
      </cc:Work>
      <cc:License
         rdf:about="http://creativecommons.org/licenses/by/4.0/">
        <cc:permits
           rdf:resource="http://creativecommons.org/ns#Reproduction" />
        <cc:permits
           rdf:resource="http://creativecommons.org/ns#Distribution" />
        <cc:requires
           rdf:resource="http://creativecommons.org/ns#Notice" />
        <cc:requires
           rdf:resource="http://creativecommons.org/ns#Attribution" />
        <cc:permits
           rdf:resource="http://creativecommons.org/ns#DerivativeWorks" />
      </cc:License>
    </rdf:RDF>
  </metadata>
  <path
     id="path37"
     fill="param(fill)" fill-opacity="param(fill-opacity)" stroke="param(outline)" stroke-opacity="param(outline-opacity)" stroke-width="param(outline-width)"
     d="M 7.0056215,1.0525058 C 4.7017513,1.6593384 2.8590413,6.4284283 2.5489664,11.498329 c -0.016871,0.275854 -0.2493865,0.49976 -0.5255289,0.49976 H 1.5 A 0.5,0.50047784 0 0 0 1,12.498566 v 1.000956 A 0.5,0.50047784 0 0 0 1.5,14 h 2 C 3.7761424,14 3.9996346,13.775915 4.0035201,13.499539 4.0728801,8.566 5.1642453,3.8000958 7.0116743,3.0823783 c 0.2559216,-0.099424 0.7212255,-0.099357 0.9759555,0.00288 1.8227787,0.731611 2.9053282,5.538926 3.0055442,10.4143577 0.0057,0.276319 0.230684,0.50038 0.506826,0.50038 h 2 A 0.5,0.50047784 0 0 0 14,13.499522 v -1.000956 a 0.5,0.50047784 0 0 0 -0.5,-0.500477 h -0.521484 c -0.276142,0 -0.508768,-0.223927 -0.525725,-0.499807 C 12.138394,6.3832705 10.281007,1.658782 7.994248,1.0529893 7.728071,0.98247547 7.2719334,0.98236013 7.0056215,1.0525058 Z" />
</svg>
