<?xml version="1.0" encoding="UTF-8" standalone="no"?>
<svg
   xmlns:dc="http://purl.org/dc/elements/1.1/"
   xmlns:cc="http://creativecommons.org/ns#"
   xmlns:rdf="http://www.w3.org/1999/02/22-rdf-syntax-ns#"
   xmlns:svg="http://www.w3.org/2000/svg"
   xmlns="http://www.w3.org/2000/svg"
   width="15"
   height="15"
   viewBox="0 0 15 15"
   version="1.1"
   id="svg8">
  <title
     id="title19">Kirche_bildhaft</title>
  <defs
     id="defs2" />
  <metadata
     id="metadata5">
    <rdf:RDF>
      <cc:Work
         rdf:about="">
        <dc:format>image/svg+xml</dc:format>
        <dc:type
           rdf:resource="http://purl.org/dc/dcmitype/StillImage" />
        <dc:title>Kirche_bildhaft</dc:title>
        <dc:creator>
          <cc:Agent>
            <dc:title>Carolin Rünger</dc:title>
          </cc:Agent>
        </dc:creator>
        <cc:license
           rdf:resource="http://creativecommons.org/licenses/by/4.0/" />
      </cc:Work>
      <cc:License
         rdf:about="http://creativecommons.org/licenses/by/4.0/">
        <cc:permits
           rdf:resource="http://creativecommons.org/ns#Reproduction" />
        <cc:permits
           rdf:resource="http://creativecommons.org/ns#Distribution" />
        <cc:requires
           rdf:resource="http://creativecommons.org/ns#Notice" />
        <cc:requires
           rdf:resource="http://creativecommons.org/ns#Attribution" />
        <cc:permits
           rdf:resource="http://creativecommons.org/ns#DerivativeWorks" />
      </cc:License>
    </rdf:RDF>
  </metadata>
  <path
     id="path28-0"
     mask="none"
     fill="param(fill)" fill-opacity="param(fill-opacity)" stroke="param(outline)" stroke-opacity="param(outline-opacity)" stroke-width="param(outline-width)"
     d="m 12,14 h 1.5 A 0.5,0.5 135 0 0 14,13.5 v -4 A 0.69371294,0.69371294 54.217474 0 0 13.525658,8.8418861 L 11.474342,8.1581139 A 2.118034,2.118034 31.717474 0 1 10.646447,7.6464466 L 8.3535534,5.3535534 A 1.2071068,1.2071068 67.5 0 1 8,4.5 V 4 A 0.5,0.5 135 0 1 8.5,3.5 h 1 A 0.5,0.5 135 0 0 10,3 0.5,0.5 45 0 0 9.5,2.5 h -1 A 0.5,0.5 45 0 1 8,2 V 1.5 A 0.5,0.5 45 0 0 7.5,1 0.5,0.5 135 0 0 7,1.5 V 2 A 0.5,0.5 135 0 1 6.5,2.5 h -1 A 0.5,0.5 135 0 0 5,3 0.5,0.5 45 0 0 5.5,3.5 h 1 A 0.5,0.5 45 0 1 7,4 V 4.5 A 1.2071068,1.2071068 112.5 0 1 6.6464466,5.3535534 L 4.3535534,7.6464466 A 2.118034,2.118034 148.28253 0 1 3.5256584,8.1581139 L 1.4743416,8.8418861 A 0.69371294,0.69371294 125.78253 0 0 1,9.5 v 4 A 0.5,0.5 45 0 0 1.5,14 h 4 c 0.2761424,0 0.4977903,-0.224315 0.5206638,-0.49943 0.098017,-1.178908 0.5318232,-2.145717 1.0233133,-2.532213 0.2130382,-0.167528 0.6990208,-0.167525 0.9120659,1.6e-5 C 8.515378,11.40824 9,12.59969 9,14 h 3" />
</svg>
