<?xml version="1.0" encoding="UTF-8" standalone="no"?>
<svg
   xmlns:dc="http://purl.org/dc/elements/1.1/"
   xmlns:cc="http://creativecommons.org/ns#"
   xmlns:rdf="http://www.w3.org/1999/02/22-rdf-syntax-ns#"
   xmlns:svg="http://www.w3.org/2000/svg"
   xmlns="http://www.w3.org/2000/svg"
   xmlns:sodipodi="http://sodipodi.sourceforge.net/DTD/sodipodi-0.dtd"
   xmlns:inkscape="http://www.inkscape.org/namespaces/inkscape"
   width="15"
   height="15"
   viewBox="0 0 15 15"
   version="1.1"
   id="svg8"
   sodipodi:docname="Parkplatz-geo.svg"
   inkscape:version="1.0.2-2 (e86c870879, 2021-01-15)">
  <sodipodi:namedview
     pagecolor="#ffffff"
     bordercolor="#666666"
     borderopacity="1"
     objecttolerance="10"
     gridtolerance="10"
     guidetolerance="10"
     inkscape:pageopacity="0"
     inkscape:pageshadow="2"
     inkscape:window-width="1920"
     inkscape:window-height="1000"
     id="namedview7"
     showgrid="false"
     inkscape:zoom="55.466667"
     inkscape:cx="7.5"
     inkscape:cy="7.5"
     inkscape:window-x="-11"
     inkscape:window-y="-11"
     inkscape:window-maximized="1"
     inkscape:current-layer="svg8"
     inkscape:document-rotation="0" />
  <title
     id="title17">Parkplatz_geometrisch</title>
  <defs
     id="defs2" />
  <metadata
     id="metadata5">
    <rdf:RDF>
      <cc:Work
         rdf:about="">
        <dc:format>image/svg+xml</dc:format>
        <dc:type
           rdf:resource="http://purl.org/dc/dcmitype/StillImage" />
        <dc:title>Parkplatz_geometrisch</dc:title>
        <dc:creator>
          <cc:Agent>
            <dc:title>Carolin Rünger</dc:title>
          </cc:Agent>
        </dc:creator>
        <cc:license
           rdf:resource="http://creativecommons.org/licenses/by/4.0/" />
      </cc:Work>
      <cc:License
         rdf:about="http://creativecommons.org/licenses/by/4.0/">
        <cc:permits
           rdf:resource="http://creativecommons.org/ns#Reproduction" />
        <cc:permits
           rdf:resource="http://creativecommons.org/ns#Distribution" />
        <cc:requires
           rdf:resource="http://creativecommons.org/ns#Notice" />
        <cc:requires
           rdf:resource="http://creativecommons.org/ns#Attribution" />
        <cc:permits
           rdf:resource="http://creativecommons.org/ns#DerivativeWorks" />
      </cc:License>
    </rdf:RDF>
  </metadata>
  <path
     id="path9"
     fill="param(fill)" fill-opacity="param(fill-opacity)" stroke="param(outline)" stroke-opacity="param(outline-opacity)" stroke-width="param(outline-width)"
     d="M 7.0002303,1.0156985 C 3.8070618,1.2583721 1.2583689,3.8070667 1.015698,7.0002361 c -0.0209308,0.2754156 -0.0209308,0.7241151 5e-7,0.9995338 0.2426736,3.1931681 2.7913682,5.7418611 5.9845376,5.9845321 0.2754155,0.02093 0.7241151,0.02093 0.9995338,0 3.1931681,-0.242674 5.7418611,-2.791369 5.9845321,-5.9845379 0.02093,-0.2754155 0.02093,-0.724115 0,-0.9995338 C 13.741628,3.8070618 11.192933,1.2583689 7.9997641,1.0156981 7.7243486,0.99476727 7.275649,0.99476722 7.0002303,1.0156985 Z M 5.4990095,2.4975236 h 1.0004953 c 0.2762792,0 0.7245199,-0.00184 1.0001195,0.016766 1.9836746,0.1339042 3.5790067,1.0553709 3.9302347,2.2414362 0.07816,0.2639321 0.07816,0.7224394 -3.1e-5,0.9864249 C 11.078529,6.9281874 9.4831801,7.8496152 7.4995135,7.9834885 7.2239748,8.0020841 6.9997525,8.2242163 6.9997525,8.5004954 V 12.002229 A 0.50024765,0.50024765 0 0 1 6.4995048,12.502476 H 5.4990095 A 0.50024765,0.50024765 0 0 1 4.9987618,12.002229 V 2.9977712 A 0.50024765,0.50024765 0 0 1 5.4990095,2.4975236 Z m 1.500743,2.0009906 V 4.748638 5.9992572 c 0,0.2762791 0.2246582,0.5031525 0.4994137,0.4753153 C 8.3355347,6.3898345 9.0204718,6.0964469 9.3272437,5.7077767 9.4951403,5.4950569 9.4951275,5.0026357 9.3271524,4.7898789 9.020318,4.4012434 8.3353717,4.1078942 7.4990195,4.023184 7.224344,3.9953634 6.9997525,4.222235 6.9997525,4.4985142 Z" />
</svg>
