<?xml version="1.0" encoding="UTF-8" standalone="no"?>
<svg
   xmlns:dc="http://purl.org/dc/elements/1.1/"
   xmlns:cc="http://creativecommons.org/ns#"
   xmlns:rdf="http://www.w3.org/1999/02/22-rdf-syntax-ns#"
   xmlns:svg="http://www.w3.org/2000/svg"
   xmlns="http://www.w3.org/2000/svg"
   width="15"
   height="15"
   viewBox="0 0 15 15"
   version="1.1"
   id="svg8">
  <title
     id="title13">Parkplatz_bildhaft</title>
  <defs
     id="defs2" />
  <metadata
     id="metadata5">
    <rdf:RDF>
      <cc:Work
         rdf:about="">
        <dc:format>image/svg+xml</dc:format>
        <dc:type
           rdf:resource="http://purl.org/dc/dcmitype/StillImage" />
        <dc:title>Parkplatz_bildhaft</dc:title>
        <dc:creator>
          <cc:Agent>
            <dc:title>Carolin Rünger</dc:title>
          </cc:Agent>
        </dc:creator>
        <cc:license
           rdf:resource="http://creativecommons.org/licenses/by/4.0/" />
      </cc:Work>
      <cc:License
         rdf:about="http://creativecommons.org/licenses/by/4.0/">
        <cc:permits
           rdf:resource="http://creativecommons.org/ns#Reproduction" />
        <cc:permits
           rdf:resource="http://creativecommons.org/ns#Distribution" />
        <cc:requires
           rdf:resource="http://creativecommons.org/ns#Notice" />
        <cc:requires
           rdf:resource="http://creativecommons.org/ns#Attribution" />
        <cc:permits
           rdf:resource="http://creativecommons.org/ns#DerivativeWorks" />
      </cc:License>
    </rdf:RDF>
  </metadata>
  <path
     id="path31"
     fill="param(fill)" fill-opacity="param(fill-opacity)" stroke="param(outline)" stroke-opacity="param(outline-opacity)" stroke-width="param(outline-width)"
     d="M 4.0442166,1.9556898 2.2878146,5.8450914 A 0.77441217,0.77441217 147.15165 0 1 1.5820312,6.3007812 l -0.082031,0 a 0.5,0.5 135 0 0 -0.5,0.5 v 3.7988278 a 0.5,0.5 45 0 0 0.5,0.5 h 0.082031 a 0.5,0.5 45 0 1 0.5,0.5 l 0,0.462891 c 0,0.276142 -0.010696,0.739765 0.118895,0.980433 0.065499,0.121641 0.1551994,0.225297 0.2618346,0.302991 C 2.6822376,13.505834 3.1413008,13.5 3.4023438,13.5 3.9759071,13.268228 4.0656077,13.164572 4.1311059,13.042931 4.2606955,12.802264 4.25,12.338642 4.25,12.0625 v -0.462891 a 0.5,0.5 135 0 1 0.5,-0.5 l 5.5,0 a 0.5,0.5 45 0 1 0.5,0.5 v 0.416016 c 0,0.276142 -0.01043,0.738226 0.113192,0.982325 0.07334,0.144822 0.178797,0.266803 0.305804,0.354255 0.223975,0.154218 0.672545,0.147795 0.922801,0.147795 0.596685,-0.235246 0.702138,-0.357229 0.775482,-0.502052 0.123622,-0.244098 0.11319,-0.706181 0.11319,-0.982323 v -0.416016 a 0.5,0.5 135 0 1 0.5,-0.5 l 0.01953,0 a 0.5,0.5 135 0 0 0.5,-0.5 V 6.8007812 a 0.5,0.5 45 0 0 -0.5,-0.5 h -0.08203 A 0.7744122,0.7744122 32.848349 0 1 12.712186,5.8450914 L 10.955783,1.9556898 A 0.7744122,0.7744122 32.848349 0 0 10.25,1.5 H 4.75 A 0.77441217,0.77441217 147.15165 0 0 4.0442166,1.9556898 Z m 1.7878146,0.743529 H 9.1679688 A 0.7953476,0.7953476 32.155766 0 1 9.8847077,3.1498009 L 11.183652,5.8501991 A 0.31432797,0.31432797 122.15577 0 1 10.900391,6.3007812 H 4.3183594 A 0.33222349,0.33222349 56.398069 0 1 4.0120861,5.8398366 L 5.1383045,3.1601634 A 0.75250548,0.75250548 146.39807 0 1 5.8320312,2.6992188 Z M 4.73682,7.3483427 C 5.0356914,7.4748358 5.2751362,7.7142727 5.4016397,8.0131386 5.5085685,8.2657588 5.5085674,8.7342183 5.4016573,8.98682 5.2751642,9.2856914 5.0357273,9.5251362 4.7368614,9.6516397 4.4842412,9.7585685 4.0157817,9.7585674 3.76318,9.6516573 3.4643086,9.5251642 3.2248638,9.2857273 3.0983603,8.9868614 2.9914315,8.7342412 2.9914326,8.2657817 3.0983427,8.01318 3.2248358,7.7143086 3.4642727,7.4748638 3.7631386,7.3483603 4.0157588,7.2414315 4.4842183,7.2414326 4.73682,7.3483427 Z m 6.5,0 c 0.298871,0.1264931 0.538316,0.36593 0.66482,0.6647959 0.106928,0.2526202 0.106927,0.7210797 1.7e-5,0.9736814 -0.126493,0.2988714 -0.36593,0.5383162 -0.664796,0.6648197 -0.25262,0.1069288 -0.721079,0.1069277 -0.973681,1.76e-5 C 9.9643086,9.5251642 9.7248638,9.2857273 9.5983603,8.9868614 9.4914315,8.7342412 9.4914326,8.2657817 9.5983427,8.01318 9.7248358,7.7143086 9.9642727,7.4748638 10.263139,7.3483603 c 0.25262,-0.1069288 0.721079,-0.1069277 0.973681,-1.76e-5 z" />
</svg>
