<?xml version="1.0" encoding="UTF-8" standalone="no"?>
<svg
   xmlns:dc="http://purl.org/dc/elements/1.1/"
   xmlns:cc="http://creativecommons.org/ns#"
   xmlns:rdf="http://www.w3.org/1999/02/22-rdf-syntax-ns#"
   xmlns:svg="http://www.w3.org/2000/svg"
   xmlns="http://www.w3.org/2000/svg"
   xmlns:sodipodi="http://sodipodi.sourceforge.net/DTD/sodipodi-0.dtd"
   xmlns:inkscape="http://www.inkscape.org/namespaces/inkscape"
   width="15"
   height="15"
   viewBox="0 0 15 15"
   version="1.1"
   id="svg8"
   sodipodi:docname="Schutzh端tte-bild.svg"
   inkscape:version="1.0.2-2 (e86c870879, 2021-01-15)">
  <sodipodi:namedview
     pagecolor="#ffffff"
     bordercolor="#666666"
     borderopacity="1"
     objecttolerance="10"
     gridtolerance="10"
     guidetolerance="10"
     inkscape:pageopacity="0"
     inkscape:pageshadow="2"
     inkscape:window-width="1920"
     inkscape:window-height="1000"
     id="namedview7"
     showgrid="false"
     inkscape:zoom="55.466667"
     inkscape:cx="7.5"
     inkscape:cy="7.5"
     inkscape:window-x="-11"
     inkscape:window-y="-11"
     inkscape:window-maximized="1"
     inkscape:current-layer="svg8"
     inkscape:document-rotation="0" />
  <title
     id="title12">Schutzh端tte_bildhaft</title>
  <defs
     id="defs2" />
  <metadata
     id="metadata5">
    <rdf:RDF>
      <cc:Work
         rdf:about="">
        <dc:format>image/svg+xml</dc:format>
        <dc:type
           rdf:resource="http://purl.org/dc/dcmitype/StillImage" />
        <dc:title>Schutzh端tte_bildhaft</dc:title>
        <dc:creator>
          <cc:Agent>
            <dc:title>Carolin R端nger</dc:title>
          </cc:Agent>
        </dc:creator>
        <cc:license
           rdf:resource="http://creativecommons.org/licenses/by/4.0/" />
      </cc:Work>
      <cc:License
         rdf:about="http://creativecommons.org/licenses/by/4.0/">
        <cc:permits
           rdf:resource="http://creativecommons.org/ns#Reproduction" />
        <cc:permits
           rdf:resource="http://creativecommons.org/ns#Distribution" />
        <cc:requires
           rdf:resource="http://creativecommons.org/ns#Notice" />
        <cc:requires
           rdf:resource="http://creativecommons.org/ns#Attribution" />
        <cc:permits
           rdf:resource="http://creativecommons.org/ns#DerivativeWorks" />
      </cc:License>
    </rdf:RDF>
  </metadata>
  <path
     id="path4"
     fill="param(fill)" fill-opacity="param(fill-opacity)" stroke="param(outline)" stroke-opacity="param(outline-opacity)" stroke-width="param(outline-width)"
     d="M 13.505813,1.0126958 1.4869232,3.8093124 C 1.2180029,3.8718862 1.0019638,4.1481939 1.00369,4.4264678 1.020493,7.1351918 0.999925,11.011443 0.99972,13.496206 0.99969697,13.774443 1.2237328,14 1.4997209,14 H 13.493016 a 0.49585315,0.49996979 0 0 0 0.495838,-0.503854 l -0.0079,-1.019579 a 0.50361829,0.50779939 0 0 0 -0.50356,-0.503854 H 3.498603 A 0.49972064,0.50386939 0 0 1 2.9988824,11.468844 V 5.9380898 A 0.62603703,0.63123448 0 0 1 3.4861764,5.3225523 L 13.505443,3.0265416 c 0.269124,-0.061673 0.492351,-0.3372205 0.493554,-0.6154963 0.0014,-0.3121962 6.41e-4,-0.6957032 -0.0012,-1.0078753 -0.0016,-0.2782366 -0.223104,-0.45304795 -0.492024,-0.3904742 z M 9.6514562,4.5296604 c -0.3816123,-0.023968 -0.7222769,0.242483 -0.8569857,0.609324 -0.1676231,0.3541752 0.056298,0.7508505 0.3109204,0.9922927 0.020888,0.019807 0.057821,0.048528 0.082779,0.063195 0.4584917,0.2694506 1.1281211,0.03382 1.2716001,-0.5172726 9.75e-4,-0.00375 0.0026,-0.00939 0.0037,-0.012607 0.173458,-0.5317243 -0.239096,-1.1490577 -0.7808132,-1.1343905 -0.00862,2.331e-4 -0.022552,-2.1e-6 -0.03116,-5.426e-4 z M 6.6559229,5.1787137 C 6.4002628,5.2097881 6.2302964,5.3894889 6.0887933,5.5994372 5.933926,5.8292142 5.7135997,6.2220535 5.5737402,6.4619536 5.2045189,7.0952763 4.8300263,7.7261871 4.515835,8.3909899 4.510315,8.4026799 4.504149,8.4228699 4.502601,8.4361429 4.441527,8.9600048 5.0319523,9.4668471 5.4994376,9.1994631 5.7091888,9.0822601 5.847902,8.8862915 5.9718202,8.6772973 6.1133279,8.4386375 6.3378477,8.0485809 6.4779652,7.8088378 6.7732707,7.3035665 7.0756745,6.8018213 7.3155966,6.2652837 7.3249351,6.2443998 7.3398187,6.2097295 7.3478034,6.1874631 7.4371335,5.938352 7.4251677,5.6306542 7.2457179,5.442386 7.1877708,5.3815911 7.0696458,5.3094995 6.9951255,5.2701511 6.9027375,5.2213682 6.8038016,5.1859919 6.7006261,5.1777306 6.6884036,5.176752 6.6683485,5.1772034 6.6559229,5.1787137 Z M 8.6825396,6.2434252 C 8.159242,6.3492514 7.7052492,6.6736189 7.3339751,7.0727752 7.1453051,7.2756141 6.8832198,7.6429886 6.7432149,7.8827132 6.4461033,8.3914456 6.2195155,8.9493997 6.0969095,9.5307038 6.03953,9.8027528 5.9877433,10.257301 6.0379852,10.530091 c 0.04936,0.268005 0.1725363,0.512489 0.4244134,0.611667 0.025168,0.0099 0.067626,0.0218 0.094449,0.02652 0.1858479,0.03274 0.3635237,-0.02052 0.5370505,-0.09552 0.2532996,-0.109482 0.658086,-0.301265 0.9062774,-0.422967 0.3452003,-0.16927 0.6881203,-0.343164 1.0343564,-0.509966 0.2488545,-0.119887 0.6035566,-0.04477 0.770227,0.176911 0.2898611,0.385532 0.5513621,0.797845 0.8840001,1.142708 0.02624,0.0272 0.07555,0.06851 0.113167,0.0856 0.346395,0.157317 0.790236,-0.211142 0.674116,-0.597612 -0.01177,-0.03919 -0.0425,-0.09838 -0.06237,-0.134246 -0.151565,-0.273537 -0.324551,-0.532867 -0.50518,-0.78681 C 10.580818,9.5657044 10.305345,9.1994631 10.305345,9.1994631 10.112913,8.9490511 9.857496,8.5532196 9.5011068,8.7447997 9.1843464,8.8373186 8.8798317,8.9843604 8.572974,9.1100978 8.3196537,9.2138977 8.1802894,9.0598655 8.3175907,8.8190123 8.3413109,8.7774023 8.3656371,8.7360491 8.3902057,8.6948134 8.5313514,8.4579154 8.751144,8.0666459 8.8879266,7.8249477 L 9.0115622,7.6064805 c 0.012707,-0.022454 0.03789,-0.026025 0.056153,-0.00788 0.3854788,0.382984 0.7456234,0.8012946 1.1675848,1.1402175 0.0096,0.00768 0.02592,0.02012 0.03702,0.027061 0.30992,0.1938316 0.686585,-0.2232187 0.566058,-0.5446842 -0.021,-0.056006 -0.08318,-0.1325868 -0.121333,-0.1790632 C 10.450553,7.717544 10.159601,7.4159 9.8632595,7.1201776 9.5792732,6.8367845 9.1310617,6.2626591 8.7396544,6.2381595 c -0.013912,-8.708e-4 -0.039528,0.00171 -0.057115,0.00527 z" />
</svg>
