<?xml version="1.0" encoding="UTF-8" standalone="no"?>
<svg
   xmlns:dc="http://purl.org/dc/elements/1.1/"
   xmlns:cc="http://creativecommons.org/ns#"
   xmlns:rdf="http://www.w3.org/1999/02/22-rdf-syntax-ns#"
   xmlns:svg="http://www.w3.org/2000/svg"
   xmlns="http://www.w3.org/2000/svg"
   xmlns:sodipodi="http://sodipodi.sourceforge.net/DTD/sodipodi-0.dtd"
   xmlns:inkscape="http://www.inkscape.org/namespaces/inkscape"
   width="15"
   height="15"
   viewBox="0 0 15 15"
   version="1.1"
   id="svg8"
   sodipodi:docname="Schutzhütte-geo.svg"
   inkscape:version="1.0.2-2 (e86c870879, 2021-01-15)">
  <sodipodi:namedview
     pagecolor="#ffffff"
     bordercolor="#666666"
     borderopacity="1"
     objecttolerance="10"
     gridtolerance="10"
     guidetolerance="10"
     inkscape:pageopacity="0"
     inkscape:pageshadow="2"
     inkscape:window-width="1920"
     inkscape:window-height="1000"
     id="namedview6"
     showgrid="true"
     inkscape:zoom="27.733334"
     inkscape:cx="3.6257454"
     inkscape:cy="12.317492"
     inkscape:window-x="-11"
     inkscape:window-y="-11"
     inkscape:window-maximized="1"
     inkscape:current-layer="svg8"
     inkscape:document-rotation="0">
    <inkscape:grid
       type="xygrid"
       id="grid7" />
  </sodipodi:namedview>
  <defs
     id="defs2" />
  <metadata
     id="metadata5">
    <rdf:RDF>
      <cc:Work
         rdf:about="">
        <dc:format>image/svg+xml</dc:format>
        <dc:type
           rdf:resource="http://purl.org/dc/dcmitype/StillImage" />
        <dc:title />
      </cc:Work>
    </rdf:RDF>
  </metadata>
  <path
     id="path4"
     fill="param(fill)" fill-opacity="param(fill-opacity)" stroke="param(outline)" stroke-opacity="param(outline-opacity)" stroke-width="param(outline-width)"
     d="M 7.1058043,3.6281585 1.4156801,7.5055393 A 0.93565586,0.95379509 0 0 0 1,8.2984865 v 0.2025121 a 0.26717823,0.27235792 0 0 0 0.415668,0.226421 L 2.584332,7.9309898 A 0.26717823,0.27235792 0 0 1 3,8.1574108 v 2.8328932 a 0.5,0.50969332 0 0 0 0.5,0.509694 h 8 A 0.5,0.50969332 0 0 0 12,10.990304 V 8.1483091 a 0.2661895,0.27135002 0 0 1 0.41481,-0.2251176 l 1.17038,0.8029247 A 0.2661895,0.27135002 0 0 0 14,8.5009986 V 8.2984865 A 0.93910743,0.95731358 0 0 0 13.585172,7.5042448 L 7.9363128,3.629453 A 0.7455141,0.75996712 0 0 0 7.1058043,3.628163 Z" />
</svg>
