<?xml version="1.0" encoding="UTF-8" standalone="no"?>
<svg
   xmlns:dc="http://purl.org/dc/elements/1.1/"
   xmlns:cc="http://creativecommons.org/ns#"
   xmlns:rdf="http://www.w3.org/1999/02/22-rdf-syntax-ns#"
   xmlns:svg="http://www.w3.org/2000/svg"
   xmlns="http://www.w3.org/2000/svg"
   xmlns:sodipodi="http://sodipodi.sourceforge.net/DTD/sodipodi-0.dtd"
   xmlns:inkscape="http://www.inkscape.org/namespaces/inkscape"
   width="15"
   height="15"
   viewBox="0 0 15 15"
   version="1.1"
   id="svg8"
   sodipodi:docname="Aussichtsturm-bild.svg"
   inkscape:version="1.0.2-2 (e86c870879, 2021-01-15)">
  <sodipodi:namedview
     pagecolor="#ffffff"
     bordercolor="#666666"
     borderopacity="1"
     objecttolerance="10"
     gridtolerance="10"
     guidetolerance="10"
     inkscape:pageopacity="0"
     inkscape:pageshadow="2"
     inkscape:window-width="1920"
     inkscape:window-height="1000"
     id="namedview7"
     showgrid="true"
     inkscape:zoom="39.220856"
     inkscape:cx="7.5"
     inkscape:cy="7.5"
     inkscape:window-x="-11"
     inkscape:window-y="-11"
     inkscape:window-maximized="1"
     inkscape:current-layer="svg8"
     inkscape:document-rotation="0">
    <inkscape:grid
       type="xygrid"
       id="grid8" />
  </sodipodi:namedview>
  <title
     id="title16">Aussichtsturm_bildhaft</title>
  <defs
     id="defs2" />
  <metadata
     id="metadata5">
    <rdf:RDF>
      <cc:Work
         rdf:about="">
        <dc:format>image/svg+xml</dc:format>
        <dc:type
           rdf:resource="http://purl.org/dc/dcmitype/StillImage" />
        <dc:title>Aussichtsturm_bildhaft</dc:title>
        <dc:creator>
          <cc:Agent>
            <dc:title>Carolin Rünger</dc:title>
          </cc:Agent>
        </dc:creator>
        <cc:license
           rdf:resource="http://creativecommons.org/licenses/by/4.0/" />
      </cc:Work>
      <cc:License
         rdf:about="http://creativecommons.org/licenses/by/4.0/">
        <cc:permits
           rdf:resource="http://creativecommons.org/ns#Reproduction" />
        <cc:permits
           rdf:resource="http://creativecommons.org/ns#Distribution" />
        <cc:requires
           rdf:resource="http://creativecommons.org/ns#Notice" />
        <cc:requires
           rdf:resource="http://creativecommons.org/ns#Attribution" />
        <cc:permits
           rdf:resource="http://creativecommons.org/ns#DerivativeWorks" />
      </cc:License>
    </rdf:RDF>
  </metadata>
  <path
     id="path4-9"
     style="display:inline;stroke-width:0.00260076"
     d="M 7.0201368,1.0900713 5.4486133,1.7233715 A 0.73851649,0.74402751 0 0 0 4.9843751,2.4141837 0.33851648,0.34104259 0 0 0 5.4486133,2.7308338 L 7.0201368,2.0975336 A 1.251222,1.260559 0 0 1 7.9487383,2.0972185 L 9.5200118,2.7291813 A 0.33876214,0.34129009 0 0 0 9.9843751,2.4122161 0.73707481,0.74257507 0 0 0 9.5201368,1.7233715 L 7.9486134,1.0900713 a 1.25,1.2593279 0 0 0 -0.9284766,0 z M 4.5,4.4291083 A 0.5,0.50373114 0 0 0 5.0000001,4.9328395 0.46972561,0.47323085 0 0 1 5.4688109,5.4355897 L 5.0311891,12.489788 A 0.53222562,0.53619723 0 0 1 4.5,12.992538 H 4.0000001 A 0.5,0.50373114 0 0 0 3.5,13.496269 0.5,0.50373114 0 0 0 4.0000001,14 H 11 A 0.5,0.50373114 0 0 0 11.5,13.496269 0.5,0.50373114 0 0 0 11,12.992538 H 10.5 A 0.53222562,0.53619723 0 0 1 9.968811,12.489788 L 9.5311891,5.4355897 A 0.46972561,0.47323085 0 0 1 10,4.9328395 0.5,0.50373114 0 0 0 10.5,4.4291083 0.5,0.50373114 0 0 0 10,3.9253771 H 5.0000001 A 0.5,0.50373114 0 0 0 4.5,4.4291083 Z" />
</svg>
