<?xml version="1.0" encoding="UTF-8" standalone="no"?>
<svg
   xmlns:dc="http://purl.org/dc/elements/1.1/"
   xmlns:cc="http://creativecommons.org/ns#"
   xmlns:rdf="http://www.w3.org/1999/02/22-rdf-syntax-ns#"
   xmlns:svg="http://www.w3.org/2000/svg"
   xmlns="http://www.w3.org/2000/svg"
   xmlns:sodipodi="http://sodipodi.sourceforge.net/DTD/sodipodi-0.dtd"
   xmlns:inkscape="http://www.inkscape.org/namespaces/inkscape"
   width="15"
   height="15"
   viewBox="0 0 15 15"
   version="1.1"
   id="svg8"
   sodipodi:docname="Freibad-bild.svg"
   inkscape:version="1.0.2-2 (e86c870879, 2021-01-15)">
  <sodipodi:namedview
     pagecolor="#ffffff"
     bordercolor="#666666"
     borderopacity="1"
     objecttolerance="10"
     gridtolerance="10"
     guidetolerance="10"
     inkscape:pageopacity="0"
     inkscape:pageshadow="2"
     inkscape:window-width="1920"
     inkscape:window-height="1000"
     id="namedview7"
     showgrid="true"
     inkscape:zoom="39.220856"
     inkscape:cx="7.5"
     inkscape:cy="7.5"
     inkscape:window-x="-11"
     inkscape:window-y="-11"
     inkscape:window-maximized="1"
     inkscape:current-layer="svg8"
     inkscape:document-rotation="0">
    <inkscape:grid
       type="xygrid"
       id="grid8" />
  </sodipodi:namedview>
  <title
     id="title12">Freibad_bildhaft</title>
  <defs
     id="defs2" />
  <metadata
     id="metadata5">
    <rdf:RDF>
      <cc:Work
         rdf:about="">
        <dc:format>image/svg+xml</dc:format>
        <dc:type
           rdf:resource="http://purl.org/dc/dcmitype/StillImage" />
        <dc:title>Freibad_bildhaft</dc:title>
        <cc:license
           rdf:resource="http://creativecommons.org/licenses/by/4.0/" />
        <dc:creator>
          <cc:Agent>
            <dc:title>Carolin Rünger</dc:title>
          </cc:Agent>
        </dc:creator>
        <dc:date />
      </cc:Work>
      <cc:License
         rdf:about="http://creativecommons.org/licenses/by/4.0/">
        <cc:permits
           rdf:resource="http://creativecommons.org/ns#Reproduction" />
        <cc:permits
           rdf:resource="http://creativecommons.org/ns#Distribution" />
        <cc:requires
           rdf:resource="http://creativecommons.org/ns#Notice" />
        <cc:requires
           rdf:resource="http://creativecommons.org/ns#Attribution" />
        <cc:permits
           rdf:resource="http://creativecommons.org/ns#DerivativeWorks" />
      </cc:License>
    </rdf:RDF>
  </metadata>
  <path
     id="path4-5"
     style="stroke-width:0.00109084"
     d="M 9.7815505,2.255756 C 8.3489171,2.503311 7.1790984,2.7046504 5.7338368,2.9746379 5.4620958,3.0254009 5.0094273,3.1430099 4.8383437,3.3643171 4.8219927,3.3854681 4.6682241,3.6407 4.7512807,3.9069451 4.7573307,3.9263491 4.8906777,4.1333193 5.0523843,4.3659157 5.252317,4.6534958 5.4582089,4.9374356 5.6649232,5.2211177 5.8315851,5.4498346 5.7597995,5.7243405 5.5048428,5.8344809 4.514745,6.2621991 3.5916875,6.6651933 2.619637,7.0887355 2.3650061,7.1996833 2.3839653,7.3035779 2.6510127,7.3749406 2.891057,7.4390873 3.1161216,7.530562 3.3294819,7.6296707 3.5814338,7.7467056 3.981197,7.9566797 4.2350655,8.0694327 4.3615999,8.1256319 4.4824716,8.1745191 4.596366,8.2134041 4.857547,8.3025747 5.3124863,8.3020727 5.5733769,8.2118245 5.6860332,8.1728466 5.8054915,8.124014 5.9306825,8.0680006 6.184204,7.954569 6.5838932,7.7444602 6.8351061,7.625407 7.0986554,7.5005075 7.3801829,7.3860937 7.6858185,7.3226555 7.9559976,7.2665767 8.408546,7.2670213 8.6785509,7.3246204 8.9500327,7.3825344 9.2015801,7.4812236 9.4389573,7.5912682 9.6909363,7.7080819 9.7500197,7.6329639 9.5773007,7.4090745 8.8460389,6.4611666 8.1098722,5.5068263 7.4429527,4.6262207 7.2721807,4.4007323 7.3548107,4.1770134 7.6267847,4.1275777 c 0.908113,-0.1650643 1.7153852,-0.3096135 2.7229543,-0.51163 0.0023,-4.613e-4 0.006,-0.00152 0.0082,-0.0024 0.07351,-0.029095 0.189912,-0.095755 0.259096,-0.1531927 0.318593,-0.2622291 0.335619,-0.6422755 0.04162,-0.9464592 -0.0039,-0.00399 -0.01002,-0.010227 -0.01381,-0.013872 C 10.562178,2.4204939 10.424201,2.3515202 10.274302,2.3055173 10.01207,2.2250404 9.7815477,2.255756 9.7815505,2.255756 Z M 10.3542,4.2426077 C 9.9068304,4.3752292 9.5483482,4.6825171 9.380144,5.0744847 9.2684934,5.3346648 9.2685395,5.8229903 9.3800218,6.0832277 c 0.1681505,0.39252 0.5266907,0.700717 0.9741602,0.8337548 0.264633,0.078679 0.722564,0.079054 0.987286,8.2e-4 0.448578,-0.1325716 0.808055,-0.4411762 0.976464,-0.8345018 0.111447,-0.2602904 0.111491,-0.7486025 -8.2e-5,-1.0087938 -0.168433,-0.3927901 -0.527834,-0.7005082 -0.976304,-0.83269 -0.264803,-0.078048 -0.72268,-0.077669 -0.987346,7.908e-4 z m 3.195299,4.246694 -0.395262,0.2021091 c -0.247744,0.1266794 -0.64814,0.3352125 -0.901323,0.4496195 -0.119818,0.054142 -0.234367,0.1014962 -0.342602,0.1396134 -0.260324,0.09168 -0.715471,0.092406 -0.976092,0.00143 C 10.826881,9.2445944 10.713296,9.1980188 10.594454,9.1446381 10.341092,9.0308328 9.9426577,8.8180795 9.6921409,8.6974524 9.4369595,8.574579 9.1649539,8.4620029 8.8697659,8.3982042 8.600051,8.3399111 8.1473437,8.3393751 7.8772893,8.3966912 7.5807123,8.4596364 7.3071305,8.5715498 7.0508285,8.6941001 6.800124,8.8139739 6.4017189,9.026636 6.1486134,9.1412286 6.0295225,9.1951466 5.9157191,9.2423238 5.8081585,9.2803431 5.5479409,9.3723218 5.092791,9.3730523 4.8320645,9.2823659 4.72405,9.2447961 4.6097178,9.198046 4.490149,9.1444404 4.2367121,9.030819 3.8382825,8.8180568 3.5878349,8.6972734 3.3332977,8.5745178 3.0621776,8.4620599 2.7676687,8.3982789 2.4979809,8.3398735 2.0449524,8.3391367 1.7756283,8.3997629 1.6684262,8.4238946 1.564563,8.4547383 1.4633407,8.4901755 1.2018402,8.5817253 1,8.9171039 1,9.2040777 v 0.1716488 c 0,0.2869739 0.1995924,0.4138405 0.4528038,0.2995016 0.1156455,-0.05222 0.2263473,-0.098061 0.3311319,-0.1352044 0.2601175,-0.092206 0.7153625,-0.091923 0.9754389,6.317e-4 0.1076855,0.038323 0.2215967,0.085855 0.3408164,0.1400979 0.2528498,0.1150417 0.6512573,0.3277737 0.901813,0.4483137 0.2551066,0.122729 0.5270221,0.235014 0.8222499,0.298284 0.2698035,0.05782 0.7225111,0.05715 0.9924661,-6.85e-4 0.2963848,-0.06349 0.5701329,-0.175685 0.8265688,-0.298357 0.2506866,-0.119922 0.6491,-0.332536 0.9019809,-0.4476686 0.1192344,-0.054285 0.2331705,-0.1018731 0.3408478,-0.1402251 0.2599747,-0.092597 0.7152308,-0.092317 0.9754164,-6.06e-5 0.1083592,0.038423 0.223015,0.086132 0.3429609,0.1405993 0.2529254,0.114855 0.6513429,0.327572 0.9018992,0.448112 0.255106,0.122728 0.527022,0.235012 0.822249,0.298284 0.269803,0.05782 0.722524,0.05719 0.992455,-7.58e-4 0.295707,-0.06347 0.568567,-0.175551 0.824358,-0.298107 0.250616,-0.120075 0.650385,-0.32941 0.898221,-0.4558971 A 0.71999053,0.74834204 0 0 0 13.99808,8.9721021 V 8.7795403 A 0.31120516,0.32345967 0 0 0 13.549499,8.4893017 Z m 0,2.2816273 -0.395262,0.20211 c -0.247744,0.126679 -0.648143,0.335233 -0.901499,0.449223 -0.119687,0.05385 -0.234116,0.100863 -0.342245,0.138693 -0.260521,0.09113 -0.715634,0.09185 -0.976449,0.0015 -0.107233,-0.03718 -0.220699,-0.08343 -0.339411,-0.136516 C 10.341096,11.312483 9.9426579,11.099708 9.6921411,10.97908 9.4369596,10.856207 9.164954,10.74363 8.8697659,10.679832 8.600051,10.621542 8.1473437,10.621001 7.8772893,10.678274 7.5807121,10.741219 7.3071301,10.853132 7.0508281,10.975683 6.8001237,11.095557 6.401716,11.30824 6.1484372,11.422414 c -0.11896,0.05362 -0.2326432,0.100474 -0.3400974,0.138197 -0.2604144,0.09143 -0.7155312,0.09216 -0.9764505,0.002 -0.1079092,-0.0372 -0.2221224,-0.08362 -0.341562,-0.136935 C 4.2367169,11.312468 3.8382826,11.099685 3.5878351,10.978901 3.3332978,10.856145 3.0621776,10.743688 2.7676687,10.679907 2.4979809,10.621502 2.0449524,10.620765 1.7756284,10.681362 1.6684262,10.705493 1.564563,10.736337 1.4633407,10.771774 1.2018402,10.863354 1,11.198732 1,11.485706 v 0.171648 c 0,0.286973 0.1995924,0.413839 0.4528039,0.299502 0.1156455,-0.05222 0.2263473,-0.09806 0.3311319,-0.135205 0.2601175,-0.09221 0.7153623,-0.09193 0.9754387,6.32e-4 0.1076855,0.03833 0.2215969,0.08585 0.3408167,0.1401 0.2528497,0.11504 0.6512681,0.327765 0.9019685,0.447977 0.2550484,0.122297 0.5268983,0.23395 0.8220482,0.296844 0.2698738,0.05751 0.7225312,0.05684 0.9925537,-6.84e-4 0.2963076,-0.06312 0.5699901,-0.174676 0.8263682,-0.296916 0.2508326,-0.119596 0.6492589,-0.332203 0.9021397,-0.447335 0.1192346,-0.05429 0.2331708,-0.101871 0.3408481,-0.140225 0.2599746,-0.0926 0.7152307,-0.09232 0.9754162,-6.1e-5 0.1083593,0.03842 0.2230152,0.08613 0.3429612,0.1406 0.2529254,0.114853 0.6513537,0.327564 0.902055,0.447776 0.255048,0.122296 0.526898,0.233948 0.822047,0.296843 0.269874,0.05751 0.722544,0.05687 0.992542,-7.57e-4 0.295631,-0.0631 0.568424,-0.174542 0.824158,-0.296666 0.250762,-0.119748 0.650544,-0.329076 0.898379,-0.455563 a 0.71999258,0.74834417 0 0 0 0.354404,-0.700487 v -0.192561 a 0.3112049,0.32345941 0 0 0 -0.448581,-0.290239 z" />
</svg>
