<?xml version="1.0" encoding="UTF-8" standalone="no"?>
<svg
   xmlns:dc="http://purl.org/dc/elements/1.1/"
   xmlns:cc="http://creativecommons.org/ns#"
   xmlns:rdf="http://www.w3.org/1999/02/22-rdf-syntax-ns#"
   xmlns:svg="http://www.w3.org/2000/svg"
   xmlns="http://www.w3.org/2000/svg"
   xmlns:sodipodi="http://sodipodi.sourceforge.net/DTD/sodipodi-0.dtd"
   xmlns:inkscape="http://www.inkscape.org/namespaces/inkscape"
   width="15"
   height="15"
   viewBox="0 0 15 15"
   version="1.1"
   id="svg8"
   sodipodi:docname="F채hre-geo.svg"
   inkscape:version="1.0.2-2 (e86c870879, 2021-01-15)">
  <sodipodi:namedview
     pagecolor="#ffffff"
     bordercolor="#666666"
     borderopacity="1"
     objecttolerance="10"
     gridtolerance="10"
     guidetolerance="10"
     inkscape:pageopacity="0"
     inkscape:pageshadow="2"
     inkscape:window-width="1920"
     inkscape:window-height="1000"
     id="namedview19"
     showgrid="false"
     inkscape:zoom="39.220856"
     inkscape:cx="7.5"
     inkscape:cy="7.5"
     inkscape:window-x="-11"
     inkscape:window-y="-11"
     inkscape:window-maximized="1"
     inkscape:current-layer="svg8"
     inkscape:document-rotation="0" />
  <title
     id="title43">F채hre_geometrisch</title>
  <defs
     id="defs2">
    <clipPath
       clipPathUnits="userSpaceOnUse"
       id="clipPath866">
      <g
         id="use868">
        <g
           id="g31"
           clip-path="url(#clipPath875)">
          <g
             id="g29">
            <g
               id="g27"
               clip-path="url(#clipPath884)">
              <g
                 id="g25" />
            </g>
          </g>
        </g>
      </g>
    </clipPath>
    <clipPath
       clipPathUnits="userSpaceOnUse"
       id="clipPath875">
      <g
         id="use877">
        <g
           id="g37"
           clip-path="url(#clipPath884)">
          <g
             id="g35" />
        </g>
      </g>
    </clipPath>
    <clipPath
       clipPathUnits="userSpaceOnUse"
       id="clipPath884">
      <g
         id="use886" />
    </clipPath>
  </defs>
  <metadata
     id="metadata5">
    <rdf:RDF>
      <cc:Work
         rdf:about="">
        <dc:format>image/svg+xml</dc:format>
        <dc:type
           rdf:resource="http://purl.org/dc/dcmitype/StillImage" />
        <dc:title>F채hre_geometrisch</dc:title>
        <dc:creator>
          <cc:Agent>
            <dc:title>Carolin R체nger</dc:title>
          </cc:Agent>
        </dc:creator>
        <cc:license
           rdf:resource="http://creativecommons.org/licenses/by/4.0/" />
      </cc:Work>
      <cc:License
         rdf:about="http://creativecommons.org/licenses/by/4.0/">
        <cc:permits
           rdf:resource="http://creativecommons.org/ns#Reproduction" />
        <cc:permits
           rdf:resource="http://creativecommons.org/ns#Distribution" />
        <cc:requires
           rdf:resource="http://creativecommons.org/ns#Notice" />
        <cc:requires
           rdf:resource="http://creativecommons.org/ns#Attribution" />
        <cc:permits
           rdf:resource="http://creativecommons.org/ns#DerivativeWorks" />
      </cc:License>
    </rdf:RDF>
  </metadata>
  <path
     id="path869"
     style="fill:#000000;fill-opacity:1;stroke:none;stroke-width:1.08631;stroke-miterlimit:4;stroke-dasharray:none;stroke-opacity:1"
     d="m 7.0002277,1.0157136 c -3.1938715,0.2429601 -5.7427684,2.7923021 -5.9846822,5.985711 -0.0208645,0.2754238 -0.0207582,0.7241381 5.108e-4,0.9995324 0.056888,0.7366006 0.2389267,1.4581837 0.5382669,2.13364 0.1119104,0.252524 0.2886182,0.434441 0.3714643,0.410114 1.0039889,-0.29032 1.5734469,-0.433999 2.2076373,-0.493152 0.2749145,-0.02564 0.5360081,-0.2484055 0.581436,-0.5209276 L 5.6560177,3.8846423 A 0.59054203,0.59054683 0 0 1 6.2385219,3.3911974 H 9.9359576 A 0.30914689,0.30914941 0 0 1 10.212458,3.8386221 L 10.072716,4.1180589 A 0.80948471,0.80949129 0 0 1 9.3487157,4.5654836 h -1.93571 A 0.60976026,0.60976522 0 0 0 6.815001,5.056093 L 6.7765318,5.2491606 A 0.41040668,0.41041002 0 0 0 7.1790262,5.73977 H 8.7614737 A 0.30914699,0.30914951 0 0 1 9.0379735,6.1871948 L 8.8982317,6.4666314 A 0.80948446,0.80949104 0 0 1 8.1742323,6.9140562 H 6.9427529 A 0.61014159,0.61014655 0 0 0 6.3444474,7.4046055 l -0.443889,2.2206669 c -0.054155,0.270923 0.1232272,0.5263246 0.3928595,0.5864086 0.2652038,0.0591 0.5192264,0.126711 0.7632547,0.195802 0.2656413,0.07521 0.6946529,0.203643 0.9610994,0.276685 0.3839296,0.105247 0.7377942,0.189791 1.0499218,0.237517 0.2722387,0.04162 0.7219106,0.0413 0.9947032,-7.86e-4 0.313012,-0.04828 0.6677,-0.133511 1.052299,-0.239192 0.265798,-0.07304 0.694539,-0.201236 0.961237,-0.273347 0.28118,-0.07603 0.576923,-0.148533 0.886375,-0.209747 0.270884,-0.05359 0.584691,-0.2897275 0.675937,-0.5504355 0.186114,-0.5317752 0.302324,-1.0855014 0.345701,-1.6472229 0.02127,-0.2753931 0.02137,-0.7241088 5.05e-4,-0.9995357 C 13.742535,3.8080107 11.193636,1.2586704 7.9997625,1.0157131 7.7243474,0.99476225 7.2756461,0.99476221 7.0002277,1.0157136 Z M 4.2356422,11.060393 c -0.313014,0.04825 -0.667719,0.133661 -1.0523297,0.239447 -0.2657618,0.0731 -0.6113449,0.186341 -0.7735085,0.247143 1.4380133,1.576329 2.9612716,2.311399 4.5904367,2.437085 0.2753955,0.02125 0.724118,0.02124 0.9995116,-1.4e-5 1.7204787,-0.132767 3.3189927,-0.944798 4.4407137,-2.255842 0.179571,-0.20988 0.139374,-0.352297 -0.06819,-0.291315 -1.031727,0.29995 -1.6335,0.453434 -2.308276,0.507269 -0.2752056,0.02196 -0.7238598,0.02231 -0.9992034,4.95e-4 C 8.3910793,11.891271 7.7932061,11.737327 7.2432964,11.578121 6.9780443,11.501328 6.5490258,11.372782 6.2826277,11.299562 5.8979918,11.193846 5.5434558,11.108633 5.2302958,11.060443 c -0.2721867,-0.04188 -0.7218625,-0.04211 -0.9946536,-5e-5 z" />
</svg>
