<?xml version="1.0" encoding="UTF-8" standalone="no"?>
<svg
   xmlns:dc="http://purl.org/dc/elements/1.1/"
   xmlns:cc="http://creativecommons.org/ns#"
   xmlns:rdf="http://www.w3.org/1999/02/22-rdf-syntax-ns#"
   xmlns:svg="http://www.w3.org/2000/svg"
   xmlns="http://www.w3.org/2000/svg"
   xmlns:sodipodi="http://sodipodi.sourceforge.net/DTD/sodipodi-0.dtd"
   xmlns:inkscape="http://www.inkscape.org/namespaces/inkscape"
   width="15"
   height="15"
   viewBox="0 0 15 15"
   version="1.1"
   id="svg8"
   sodipodi:docname="Höhle-bild.svg"
   inkscape:version="1.0.2-2 (e86c870879, 2021-01-15)">
  <sodipodi:namedview
     pagecolor="#ffffff"
     bordercolor="#666666"
     borderopacity="1"
     objecttolerance="10"
     gridtolerance="10"
     guidetolerance="10"
     inkscape:pageopacity="0"
     inkscape:pageshadow="2"
     inkscape:window-width="1920"
     inkscape:window-height="1000"
     id="namedview7"
     showgrid="false"
     inkscape:zoom="55.466667"
     inkscape:cx="7.5"
     inkscape:cy="7.5"
     inkscape:window-x="-11"
     inkscape:window-y="-11"
     inkscape:window-maximized="1"
     inkscape:current-layer="svg8" />
  <title
     id="title14">Höhle_bildhaft</title>
  <defs
     id="defs2" />
  <metadata
     id="metadata5">
    <rdf:RDF>
      <cc:Work
         rdf:about="">
        <dc:format>image/svg+xml</dc:format>
        <dc:type
           rdf:resource="http://purl.org/dc/dcmitype/StillImage" />
        <dc:title>Höhle_bildhaft</dc:title>
        <dc:creator>
          <cc:Agent>
            <dc:title>Carolin Rünger</dc:title>
          </cc:Agent>
        </dc:creator>
        <cc:license
           rdf:resource="http://creativecommons.org/licenses/by/4.0/" />
      </cc:Work>
      <cc:License
         rdf:about="http://creativecommons.org/licenses/by/4.0/">
        <cc:permits
           rdf:resource="http://creativecommons.org/ns#Reproduction" />
        <cc:permits
           rdf:resource="http://creativecommons.org/ns#Distribution" />
        <cc:requires
           rdf:resource="http://creativecommons.org/ns#Notice" />
        <cc:requires
           rdf:resource="http://creativecommons.org/ns#Attribution" />
        <cc:permits
           rdf:resource="http://creativecommons.org/ns#DerivativeWorks" />
      </cc:License>
    </rdf:RDF>
  </metadata>
  <path
     id="path8"
     style="display:inline;fill:#000000;stroke-width:1.82953"
     d="M 6.8798472,1.0515876 C 4.5515175,1.5299851 2.3092303,5.2894277 2.1126418,10.395335 2.1019281,10.673598 1.8792099,10.936639 1.6068516,10.982584 l -0.1137032,0.01918 A 0.59058315,0.59560052 0 0 0 1,11.589205 V 12.5977 a 0.40990195,0.41338432 0 0 0 0.4902903,0.405357 l 1.5194194,-0.306466 a 1.2933034,1.3042908 0 0 1 0.9190368,0.160543 l 1.642507,0.993876 a 1.0361497,1.0449524 0 0 0 0.8969111,0.08238 l 3.0636708,-1.158636 a 2.0846668,2.1023773 0 0 1 0.9650306,-0.120682 l 3.006268,0.341079 A 0.44690411,0.45070083 0 0 0 14,12.547275 v -0.95807 a 0.5,0.50424781 0 0 0 -0.5,-0.504248 h -0.4 c -0.276142,0 -0.502527,-0.225792 -0.51377,-0.504042 C 12.380316,5.4847369 10.188133,1.5543103 7.8746254,1.053905 7.6051362,0.99561531 7.3775237,1.0000006 7.376386,1.0000006 Z M 7.2482213,5.6047565 8.1582757,3.9999352 a 0.19546739,0.19712801 0 0 1 0.3601831,0.053722 l 0.8695794,3.8169189 a 0.14922212,0.15048985 0 0 0 0.285391,0.018501 L 10.122291,6.665026 c 0.09578,-0.2611992 0.239106,-0.2570817 0.313431,0.011124 0.33656,1.2144852 0.546789,2.394349 0.612116,3.876575 0.01226,0.278225 -0.200539,0.448091 -0.46808,0.379127 l -0.09533,-0.02458 a 1.7242731,1.7389219 0 0 0 -0.959943,0.03098 l -3.048968,0.99934 A 1.2008576,1.2110596 0 0 1 5.5553178,11.862911 L 4.1415112,11.129935 C 3.89592,11.00261 3.7023561,10.673664 3.7164837,10.395547 3.7927321,8.8945099 4.0174579,7.7056926 4.3702654,6.4944787 4.448099,6.2272705 4.5842192,6.2276281 4.6673875,6.4931856 l 0.182023,0.5812021 a 0.13782537,0.13899628 0 0 0 0.2655582,-0.0099 L 5.6874073,4.6210678 a 0.21003556,0.21181994 0 0 1 0.3819852,-0.064414 l 0.663591,1.0595013 a 0.30068739,0.30324191 0 0 0 0.5152378,-0.011399 z" />
</svg>
