<?xml version="1.0" encoding="UTF-8" standalone="no"?>
<svg
   xmlns:dc="http://purl.org/dc/elements/1.1/"
   xmlns:cc="http://creativecommons.org/ns#"
   xmlns:rdf="http://www.w3.org/1999/02/22-rdf-syntax-ns#"
   xmlns:svg="http://www.w3.org/2000/svg"
   xmlns="http://www.w3.org/2000/svg"
   xmlns:sodipodi="http://sodipodi.sourceforge.net/DTD/sodipodi-0.dtd"
   xmlns:inkscape="http://www.inkscape.org/namespaces/inkscape"
   width="15"
   height="15"
   viewBox="0 0 15 15"
   version="1.1"
   id="svg8"
   sodipodi:docname="Schiffsanlegestelle-bild.svg"
   inkscape:version="1.0.2-2 (e86c870879, 2021-01-15)">
  <sodipodi:namedview
     pagecolor="#ffffff"
     bordercolor="#666666"
     borderopacity="1"
     objecttolerance="10"
     gridtolerance="10"
     guidetolerance="10"
     inkscape:pageopacity="0"
     inkscape:pageshadow="2"
     inkscape:window-width="1920"
     inkscape:window-height="1000"
     id="namedview7"
     showgrid="false"
     inkscape:zoom="32"
     inkscape:cx="5.3382831"
     inkscape:cy="9.883194"
     inkscape:window-x="-11"
     inkscape:window-y="-11"
     inkscape:window-maximized="1"
     inkscape:current-layer="svg8" />
  <title
     id="title18">Schiffsanlegestelle_bildhaft</title>
  <defs
     id="defs2">
    <inkscape:path-effect
       effect="fillet_chamfer"
       id="path-effect9"
       is_visible="true"
       lpeversion="1"
       satellites_param="F,0,0,1,0,0.0078125,0,1 @ F,0,0,1,0,0.0078125,0,1 @ F,0,0,1,0,0.5,0,1 @ F,0,0,1,0,0.5,0,1 @ F,0,0,1,0,0.5,0,1 @ F,0,0,1,0,0.00088783393,0,1 @ F,0,0,1,0,0.012392956,0,1 @ F,0,0,1,0,0.0024406891,0,1 @ F,0,0,1,0,0.5,0,1 @ F,0,0,1,0,0.5,0,1 @ F,0,0,1,0,0.5,0,1 @ F,0,0,1,0,0.5,0,1 @ F,0,0,1,0,0.0011289285,0,1 @ F,0,0,1,0,0.0068116213,0,1 @ F,0,0,1,0,0.0061998241,0,1 @ F,0,0,1,0,0.5,0,1 @ F,0,0,1,0,0.5,0,1 @ F,0,0,1,0,0.5,0,1 @ F,0,0,1,0,0.5,0,1 @ F,0,0,1,0,0.0083873531,0,1 @ F,0,0,1,0,0.0083873531,0,1 @ F,0,0,1,0,0.0083873531,0,1 @ F,0,0,1,0,0.5,0,1 @ F,0,0,1,0,0.5,0,1 @ F,0,0,1,0,0.5,0,1 @ F,0,0,1,0,0.0078125,0,1 @ F,0,0,1,0,0.0078125,0,1 @ F,0,0,1,0,0.0078125,0,1 @ F,0,0,1,0,0.0078125,0,1 @ F,0,0,1,0,0.0078125,0,1 @ F,0,0,1,0,0.5,0,1 @ F,0,0,1,0,0.5,0,1 @ F,0,0,1,0,0.5,0,1 @ F,0,0,1,0,0.00086936162,0,1 @ F,0,0,1,0,0.0062219077,0,1 @ F,0,0,1,0,0.0049546193,0,1 @ F,0,0,1,0,0.5,0,1 @ F,0,0,1,0,0.5,0,1 @ F,0,0,1,0,0.5,0,1 @ F,0,0,1,0,0.00390625,0,1 @ F,0,0,1,0,0.00390625,0,1 @ F,0,0,1,0,0.00390625,0,1 @ F,0,0,1,0,0.00390625,0,1 @ F,0,0,1,0,0.00390625,0,1 @ F,0,0,1,0,0.5,0,1 @ F,0,0,1,0,0.5,0,1 @ F,0,0,1,0,0.5,0,1 @ F,0,0,1,0,0.0063969036,0,1 @ F,0,0,1,0,0.00079316395,0,1 @ F,0,0,1,0,0.011101957,0,1 @ F,0,0,1,0,0.5,0,1 @ F,0,0,1,0,0.5,0,1 @ F,0,0,1,0,0.5,0,1 @ F,0,0,1,0,0.0078125,0,1 @ F,0,0,1,0,0.0078125,0,1 @ F,0,0,1,0,0.0078125,0,1 | F,0,0,1,0,0.5,0,1 @ F,0,0,1,0,0.5,0,1 @ F,0,0,1,0,0.5,0,1 @ F,0,0,1,0,0.5,0,1 @ F,0,0,1,0,0.5,0,1 @ F,0,0,1,0,0.5,0,1 | F,0,0,1,0,0.5,0,1 @ F,0,0,1,0,0.5,0,1 @ F,0,0,1,0,0.5,0,1 @ F,0,0,1,0,0.5,0,1 @ F,0,0,1,0,0.5,0,1 @ F,0,0,1,0,0.5,0,1 @ F,0,0,1,0,0.5,0,1 | F,0,0,1,0,0.5,0,1 @ F,0,0,1,0,0.5,0,1 @ F,0,0,1,0,0.5,0,1 @ F,0,0,1,0,0.5,0,1 @ F,0,0,1,0,0.5,0,1 @ F,0,0,1,0,0.5,0,1 | F,0,0,1,0,0.5,0,1 @ F,0,0,1,0,0.5,0,1 @ F,0,0,1,0,0.5,0,1 @ F,0,0,1,0,0.5,0,1 @ F,0,0,1,0,0.5,0,1 @ F,0,0,1,0,0.27870045,0,1 @ F,0,0,1,0,0.5,0,1 | F,0,0,1,0,0.0045573246,0,1 @ F,0,0,1,0,0.013923463,0,1 @ F,0,0,1,0,0.0099391909,0,1 @ F,0,0,1,0,0.0097607544,0,1 @ F,0,0,1,0,0.00025817304,0,1 @ F,0,0,1,0,0.004058173,0,1 @ F,0,0,1,0,0.0085580471,0,1 @ F,0,0,1,0,0.0029368771,0,1 | F,0,0,1,0,0.5,0,1 @ F,0,0,1,0,0.5,0,1 @ F,0,0,1,0,0.5,0,1 @ F,0,0,1,0,0.5,0,1 @ F,0,0,1,0,0.5,0,1 @ F,0,0,1,0,0.5,0,1 | F,0,0,1,0,0.5,0,1 @ F,0,0,1,0,0.5,0,1 @ F,0,0,1,0,0.5,0,1 @ F,0,0,1,0,0.5,0,1 @ F,0,0,1,0,0.5,0,1 @ F,0,0,1,0,0.5,0,1 @ F,0,0,1,0,0.5,0,1 | F,0,0,1,0,0.5,0,1 @ F,0,0,1,0,0.5,0,1 @ F,0,0,1,0,0.5,0,1 @ F,0,0,1,0,0.5,0,1 @ F,0,0,1,0,0.5,0,1 @ F,0,0,1,0,0.5,0,1 | F,0,0,1,0,0.5,0,1 @ F,0,0,1,0,0.5,0,1 @ F,0,0,1,0,0.5,0,1 @ F,0,0,1,0,0.5,0,1 @ F,0,0,1,0,0.5,0,1 @ F,0,0,1,0,0.5,0,1 @ F,0,0,1,0,0.5,0,1"
       unit="px"
       method="auto"
       mode="F"
       radius="0.5"
       chamfer_steps="1"
       flexible="false"
       use_knot_distance="true"
       apply_no_radius="true"
       apply_with_radius="true"
       only_selected="false"
       hide_knots="false" />
  </defs>
  <metadata
     id="metadata5">
    <rdf:RDF>
      <cc:Work
         rdf:about="">
        <dc:format>image/svg+xml</dc:format>
        <dc:type
           rdf:resource="http://purl.org/dc/dcmitype/StillImage" />
        <dc:title>Schiffsanlegestelle_bildhaft</dc:title>
        <dc:creator>
          <cc:Agent>
            <dc:title>Carolin Rünger</dc:title>
          </cc:Agent>
        </dc:creator>
        <cc:license
           rdf:resource="http://creativecommons.org/licenses/by/4.0/" />
      </cc:Work>
      <cc:License
         rdf:about="http://creativecommons.org/licenses/by/4.0/">
        <cc:permits
           rdf:resource="http://creativecommons.org/ns#Reproduction" />
        <cc:permits
           rdf:resource="http://creativecommons.org/ns#Distribution" />
        <cc:requires
           rdf:resource="http://creativecommons.org/ns#Notice" />
        <cc:requires
           rdf:resource="http://creativecommons.org/ns#Attribution" />
        <cc:permits
           rdf:resource="http://creativecommons.org/ns#DerivativeWorks" />
      </cc:License>
    </rdf:RDF>
  </metadata>
  <path
     id="path91-7"
     style="fill:#000000;stroke-width:1.20268"
     d="m 6.9999995,1.5078125 v 1.0117188 c 0,0.00431 6.2e-6,0.011311 -5.96e-5,0.015625 C 6.9983222,2.6411517 6.963872,2.7424894 6.90672,2.8303451 6.7597509,3.0562709 6.2875156,3.157596 6.026786,3.2481291 5.8255115,3.3180176 5.6294467,3.4021147 5.4400861,3.4997794 5.1947971,3.6262897 4.794238,3.8999339 4.530842,3.8448821 4.3625859,3.8097141 4.0975303,3.5408898 3.9022682,3.3456277 L 3.5612122,3.0045718 C 3.5608655,3.0042251 3.5603034,3.0036629 3.5599561,3.0033168 3.3675788,2.8116071 3.0580042,2.808929 2.8623526,2.9952824 c -0.00496,0.00472 -0.01281,0.012575 -0.01753,0.017531 -0.1859603,0.1952753 -0.1836178,0.5040088 0.007,0.6964257 9.52e-4,9.609e-4 0.0025,0.00251 0.00345,0.00346 L 3.2128152,4.070237 C 3.4080773,4.2654992 3.7433529,4.6127904 3.7310803,4.8808032 3.722908,5.0592489 3.5215379,5.3822315 3.4067271,5.6332188 3.3478676,5.7618915 3.2951084,5.8932704 3.2486271,6.0269139 3.1579626,6.2875934 3.0564097,6.7596911 2.830508,6.9066532 2.6836546,7.0021885 2.3034864,7 2.027344,7 H 1.5011289 c -6.235e-4,0 -0.00163,-1e-7 -0.00226,1.2e-6 -0.2733476,6.041e-4 -0.495181,0.2205553 -0.4988255,0.4931788 -5.039e-5,0.00377 -5.038e-5,0.00987 -2e-7,0.013631 0.00362,0.2709369 0.2227324,0.4898533 0.4937464,0.4931508 C 1.4972203,8.000004 1.5027758,8 1.5061998,8 H 2.027344 c 0.2761424,0 0.7606263,0.00859 0.9372501,0.2100233 0.1158453,0.132117 0.1926175,0.5025308 0.2830093,0.7633095 0.061952,0.1787296 0.1351129,0.3533805 0.2190435,0.5229032 0.1224576,0.2473391 0.3885981,0.651197 0.3330698,0.914767 -0.035877,0.170288 -0.3057024,0.436779 -0.5009644,0.632042 l -0.4392682,0.439268 c -0.00328,0.0033 -0.00859,0.0086 -0.011813,0.01191 -0.1874174,0.193686 -0.1874193,0.501454 -6e-6,0.695142 0.00322,0.0033 0.00854,0.0086 0.011868,0.01187 0.1936845,0.187376 0.5014191,0.187346 0.6950664,-6.8e-5 0.00333,-0.0032 0.00864,-0.0085 0.011916,-0.01182 l 0.4451283,-0.445128 c 0.195262,-0.195263 0.5434742,-0.53137 0.8110332,-0.515526 0.1763416,0.01044 0.4947353,0.216099 0.7439196,0.334772 0.1497835,0.07133 0.3034004,0.134333 0.4601404,0.188704 0.2607521,0.09045 0.7329999,0.191629 0.8799754,0.417507 0.057146,0.08782 0.091597,0.189132 0.093227,0.295109 6.69e-5,0.0043 6.06e-5,0.01137 6.06e-5,0.01569 v 1.01172 c 0,0.0043 -6.3e-6,0.01131 5.98e-5,0.01562 0.00413,0.269938 0.2221828,0.487989 0.4921195,0.492128 0.00432,6.6e-5 0.011319,6.6e-5 0.015633,0 0.2699377,-0.0041 0.4879887,-0.222183 0.4921279,-0.492119 6.62e-5,-0.0043 5.99e-5,-0.01132 5.99e-5,-0.01563 v -1.011719 c 0,-0.0043 -6.2e-6,-0.01131 5.96e-5,-0.01563 0.00162,-0.105996 0.036068,-0.207334 0.09322,-0.29519 C 8.2402484,11.943728 8.7124827,11.8424 8.9732123,11.751867 9.107472,11.705248 9.23945,11.652294 9.3686984,11.593186 9.6196925,11.4784 10.029482,11.226335 10.293308,11.28294 c 0.174021,0.03734 0.443145,0.308984 0.638407,0.504246 l 0.407476,0.407476 c 3.4e-4,3.4e-4 8.9e-4,8.9e-4 0.0012,0.0012 0.193839,0.19318 0.506675,0.194435 0.70206,0.0038 0.0025,-0.0024 0.0064,-0.0063 0.0088,-0.0088 0.189684,-0.194408 0.189357,-0.50507 -9.54e-4,-0.699078 -0.0019,-0.002 -0.0051,-0.0051 -0.007,-0.007 l -0.38701,-0.387011 c -0.195262,-0.195263 -0.533091,-0.54543 -0.509957,-0.811895 0.01493,-0.171994 0.228848,-0.4809809 0.35517,-0.7263767 0.09739,-0.1891988 0.181247,-0.3850747 0.250926,-0.5861383 0.09037,-0.2607765 0.191409,-0.7330784 0.417279,-0.8800581 0.08887,-0.057834 0.191569,-0.092416 0.298945,-0.093248 C 12.470879,7.9999984 12.474405,8 12.476562,8 h 1.019532 c 0.0022,0 0.0057,1.6e-6 0.0078,-1.49e-5 0.273041,-0.00209 0.493985,-0.223031 0.496079,-0.4960703 1.7e-5,-0.00216 1.7e-5,-0.00566 0,-0.00782 C 13.997896,7.2230534 13.776954,7.0021088 13.503915,7.000015 13.501753,6.9999984 13.498251,7 13.496094,7 l -1.019532,0 c -0.0022,0 -0.0057,1.6e-6 -0.0078,-1.49e-5 -0.107423,-8.2e-4 -0.21019,-0.035417 -0.299143,-0.09328 C 11.943675,6.7597394 11.842252,6.2875437 11.751664,6.026833 11.697418,5.8707127 11.634612,5.7176961 11.563532,5.568485 11.444837,5.319317 11.18562,4.9124999 11.241649,4.6487927 c 0.03657,-0.1721379 0.307304,-0.439934 0.502566,-0.6351961 l 0.298099,-0.2980982 c 0.0025,-0.0025 0.0066,-0.00655 0.009,-0.00907 0.19057,-0.1954086 0.18926,-0.5081919 -0.0039,-0.7019874 -3.12e-4,-3.135e-4 -8.17e-4,-8.184e-4 -0.0011,-0.00113 -0.192679,-0.1920398 -0.502949,-0.19441 -0.698531,-0.00714 -0.0044,0.00424 -0.01145,0.011286 -0.01579,0.015621 L 11.043044,3.3007053 C 10.847782,3.4959676 10.498575,3.8329595 10.231552,3.8133563 10.057444,3.8005732 9.7438958,3.5905774 9.496648,3.4679205 9.3269566,3.3837384 9.1521143,3.3103519 8.9731748,3.2482033 8.7124585,3.1576523 8.2402823,3.0562994 8.0933137,2.8304101 8.0361523,2.7425536 8.0016905,2.6412145 8.0000601,2.5352182 c -6.69e-5,-0.00435 -6.06e-5,-0.011372 -6.06e-5,-0.015687 V 1.5078125 c 0,-0.00431 6.3e-6,-0.011311 -5.98e-5,-0.015625 C 7.995805,1.2222501 7.7777569,1.0041991 7.5078202,1.0000599 c -0.00432,-6.62e-5 -0.011319,-6.619e-5 -0.015633,-10e-8 -0.2699377,0.00413 -0.4879887,0.2221828 -0.4921279,0.4921195 -6.62e-5,0.00432 -5.99e-5,0.011319 -5.99e-5,0.015633 z M 8.9559877,4.3167624 C 9.097625,4.3816045 9.4567976,4.6221607 9.3911454,4.8691547 9.3576909,4.9950113 9.1131548,5.2305945 8.9178926,5.4258566 8.8079271,5.5358221 8.5448391,5.8002819 8.2760426,5.8387484 8.1249132,5.8603753 7.9999995,5.6003612 7.9999995,5.3242188 V 5.0351562 c 0,-0.2761424 0.01135,-0.8087484 0.2561947,-0.8918509 0.1212723,-0.04116 0.4489252,0.058609 0.6997935,0.1734571 z M 6.9999995,5.0371062 c 0,0.1585714 -0.00941,0.531118 -0.17474,0.7462274 C 6.709661,5.9337333 6.4139742,5.8573338 6.218712,5.6620717 L 6.0254655,5.4688254 C 5.8302033,5.2735633 5.4638007,4.8938395 5.5689721,4.6563003 5.6225258,4.5353475 5.9232798,4.3628799 6.1789069,4.2590541 6.3592927,4.1857887 6.5117837,4.1430135 6.5117837,4.1430135 c 1.134e-4,-3.32e-5 2.268e-4,-6.65e-5 3.402e-4,-9.97e-5 0.2645935,-0.0775 0.4878756,0.1180478 0.4878756,0.3941924 z m 3.7918115,1.2765825 c 0.039,0.1083445 0.117966,0.5012619 -0.103137,0.628482 -0.111575,0.064197 -0.449642,0.057826 -0.725784,0.057826 -0.1585697,0 -0.5349066,0.012302 -0.7589,-0.1422747 C 9.1062641,6.7902811 9.2149315,6.5428804 9.4101933,6.347618 L 9.6171123,6.1406984 C 9.8123741,5.945436 10.198848,5.5761106 10.428578,5.6937606 c 0.112651,0.057692 0.269789,0.3603262 0.363233,0.6199281 z M 5.3418724,6.1992916 C 5.460467,6.3178863 5.7443796,6.5716989 5.8158807,6.8354489 5.8396899,6.9232774 5.6003609,7 5.3242185,7 H 5.035156 C 4.7590136,7 4.2262447,6.988582 4.1434853,6.7436643 c -0.040953,-0.1212 0.059096,-0.4486261 0.174182,-0.6993855 0.031688,-0.069046 0.1156403,-0.2357029 0.1958236,-0.3670447 0.063672,-0.1042954 0.2795647,-0.02676 0.4748283,0.168504 z m 2.6415535,0.425113 c 0.1620068,0.089637 0.2964988,0.22293 0.387602,0.3840054 0.00378,0.00668 0.00976,0.017594 0.013266,0.024439 0.1233387,0.2408972 0.1225172,0.7010628 -0.00245,0.9390314 -0.0022,0.00419 -0.00618,0.01146 -0.00886,0.016248 -0.090283,0.1611179 -0.2238779,0.2946885 -0.3850148,0.3849418 -0.00468,0.00262 -0.012335,0.00682 -0.017114,0.00931 C 7.5056235,8.6253215 7.0204644,8.3777371 7.0203393,8.3776686 6.8537649,8.2864396 6.7159975,8.1491698 6.6241569,7.9829792 c -0.00107,-0.00194 -0.00281,-0.00512 -0.00387,-0.00709 -0.1281369,-0.2387518 -0.1286273,-0.7084783 -0.00148,-0.9489908 0.00186,-0.00351 0.00524,-0.00969 0.00755,-0.013821 0.0914,-0.1636427 0.2274455,-0.2989567 0.391654,-0.3894613 0.0014,-7.729e-4 0.00369,-0.00203 0.00512,-0.0028 0.2396122,-0.1292981 0.7137594,-0.1293377 0.9535077,-1.32e-4 0.00155,8.355e-4 0.00459,0.0025 0.00679,0.00372 z M 5.037109,8 c 0.1585697,0 0.5331958,-9.41e-4 0.7525493,0.1594101 0.1239078,0.09058 0.030566,0.3621624 -0.1646962,0.5574245 L 5.4258567,8.9159402 C 5.2305945,9.1112023 4.8476598,9.4790639 4.6137893,9.3678063 4.4968567,9.3121774 4.331905,9.0103862 4.2331348,8.7527634 4.1778925,8.608674 4.0902966,8.1849783 4.3114012,8.05779 4.4229432,7.9936279 4.7609666,8 5.037109,8 Z m 5.138672,0 c 0.159648,0 0.597833,0.011359 0.68089,0.2562138 0.04113,0.1212626 -0.05868,0.4488839 -0.173557,0.6997381 -0.08082,0.176488 -0.342045,0.5560206 -0.590288,0.4916694 C 9.9640001,9.4142249 9.7264365,9.1678436 9.5311743,8.9725815 9.4244448,8.8658519 9.1694856,8.5982967 9.1452498,8.3287202 9.1289242,8.1471202 9.3996359,8 9.6757805,8 Z M 6.9999995,9.6757812 V 9.964844 c 0,0.276142 -0.011331,0.808701 -0.2561543,0.891903 C 6.6225522,10.897966 6.2948336,10.79828 6.0439337,10.683501 5.9379038,10.634995 5.6002042,10.414299 5.6673304,10.16869 5.7008858,10.045918 5.943485,9.8123743 6.1387471,9.6171121 6.2530273,9.5028319 6.5118605,9.2283365 6.7788631,9.1743729 6.8985786,9.150178 6.9999995,9.3996388 6.9999995,9.6757812 Z m 1.9414819,0.1211691 c 0.118595,0.118595 0.4271192,0.4465717 0.3031857,0.6719237 -0.059603,0.108375 -0.3628262,0.257903 -0.6242625,0.346084 -0.072575,0.02448 -0.4353064,0.09488 -0.5625504,-0.126223 -0.064225,-0.1116 -0.057854,-0.449702 -0.057854,-0.725844 0,-0.1585699 -0.024936,-0.5359644 0.122617,-0.7650986 0.046463,-0.07215 0.2700476,0.050341 0.4653113,0.2456045 z"
     inkscape:path-effect="#path-effect9"
     inkscape:original-d="m 6.9999995,1.5 v 1.0273438 c 0,0.2761424 -0.2235857,0.5222664 -0.4927466,0.5833285 C 5.9730382,3.2318649 5.4653598,3.4496199 5.0093559,3.7531548 4.7796058,3.9060859 4.4510837,3.8944432 4.2558216,3.699181 L 3.5605844,3.003944 a 0.49999993,0.49999993 179.99999 0 0 -0.7071067,10e-8 0.49994661,0.49994661 89.993864 0 0 7.57e-5,0.7070312 L 3.5663686,4.4237904 C 3.7616307,4.6190526 3.7814581,4.9543017 3.6395242,5.1910103 3.3948547,5.5990552 3.2164263,6.0433704 3.1109263,6.5073031 3.0497261,6.7764289 2.8034864,7 2.527344,7 H 1.5 A 0.5,0.5 135 0 0 1,7.5 0.5,0.5 45 0 0 1.5,8 h 1.027344 c 0.2761424,0 0.5221457,0.2235977 0.5830626,0.4927915 0.1155938,0.5108138 0.3195056,0.9975963 0.6024949,1.4382886 0.1491299,0.2322359 0.1346663,0.5631489 -0.060596,0.7584109 l -0.7987522,0.798753 a 0.5,0.5 90 0 0 0,0.707106 0.49994642,0.49994642 179.99386 0 0 0.707031,-7.5e-5 L 4.3651966,11.390662 C 4.5604588,11.1954 4.893548,11.17829 5.128036,11.323863 c 0.4250731,0.263891 0.8912397,0.455066 1.3791997,0.565612 0.269175,0.06098 0.4927638,0.307039 0.4927638,0.583181 V 13.5 a 0.5,0.5 45 0 0 0.5,0.5 0.5,0.5 135 0 0 0.5,-0.5 v -1.027344 c 0,-0.276142 0.2235856,-0.522268 0.4927462,-0.583331 0.4646017,-0.105403 0.9095673,-0.283936 1.318176,-0.528892 0.2367183,-0.14191 0.5719783,-0.122064 0.7672403,0.0732 l 0.761644,0.761644 a 0.50000035,0.50000035 2.0259274e-5 0 0 0.707107,0 0.49994642,0.49994642 89.99392 0 0 -7.5e-5,-0.707031 L 11.302772,10.744178 C 11.10751,10.548916 11.095738,10.220276 11.248492,9.9904021 11.551521,9.5343859 11.768815,9.0268111 11.889626,8.4927867 11.950524,8.2235945 12.196514,8 12.472656,8 H 13.5 A 0.5,0.5 135 0 0 14,7.5 0.5,0.5 45 0 0 13.5,7 H 12.472656 C 12.196514,7 11.950342,6.7764191 11.889222,6.5072711 11.778567,6.0199823 11.587494,5.5544689 11.323896,5.1299561 11.178303,4.8954853 11.195399,4.562412 11.390662,4.3671499 l 0.656175,-0.6561748 a 0.49999907,0.49999907 89.999984 0 0 0,-0.7071062 0.49994748,0.49994748 179.9939 0 0 -0.707032,7.53e-5 L 10.689491,3.6542589 C 10.494229,3.8495211 10.163428,3.8638445 9.9313067,3.7145269 9.4906176,3.4310434 9.0037303,3.2266817 8.4927305,3.1107117 8.2235793,3.0496286 7.9999995,2.8034862 7.9999995,2.5273438 V 1.5 a 0.5,0.5 45 0 0 -0.5,-0.5 0.5,0.5 135 0 0 -0.5,0.5 z M 8.4880683,4.1417578 C 8.7384071,4.215501 8.9797276,4.3170182 9.2075004,4.444404 9.4483048,4.579078 9.4667082,4.8770412 9.2714461,5.0723033 L 8.7187869,5.6249623 C 8.5235248,5.8202244 8.2100693,5.8860362 7.9999995,5.8242188 V 4.5351562 c 0,-0.2761424 0.2234053,-0.4713613 0.4880688,-0.3933984 z M 6.9999995,4.5371062 v 0.7871126 c 0,0.2761424 -0.2077813,0.555018 -0.427734,0.6914062 L 5.671912,5.1152721 C 5.4766498,4.92001 5.4924074,4.6187604 5.7306492,4.4795992 5.9763696,4.3360695 6.2386976,4.2230341 6.5117837,4.1430135 6.7765557,4.065429 6.9999995,4.037108 6.9999995,4.0371062 Z m 3.5895015,1.3198049 c 0.110902,0.2087402 0.200378,0.4281884 0.267048,0.6549633 0.07782,0.2647034 -0.117517,0.4881224 -0.393659,0.4881224 H 9.6757805 c -0.2761424,0 -0.5384496,-0.1405336 -0.61914,-0.2988249 L 9.9706651,5.7871445 C 10.165927,5.5918821 10.460049,5.6132571 10.589501,5.8569111 Z M 4.9883192,5.8457381 5.5566023,6.4140217 C 5.7518643,6.6092839 5.8624732,6.8685961 5.8242185,7 H 4.535156 C 4.2590136,7 4.0640068,6.7766221 4.1422202,6.5120324 4.2025056,6.3080917 4.2812556,6.1100627 4.3774875,5.9204168 4.5023367,5.6743743 4.634766,5.4921862 4.634766,5.4921846 Z m 2.991114,0.7764693 c 0.1678517,0.091872 0.30647,0.230487 0.3983464,0.3983361 0.1312079,0.2397039 0.1312075,0.7191951 1.25e-5,0.9588902 C 8.28592,8.1472854 8.1473051,8.2859037 7.979456,8.3777801 7.7397521,8.508988 7.2602609,8.5089876 7.0205658,8.3777926 6.8527141,8.2859205 6.7140958,8.1473056 6.6222194,7.9794565 6.4910115,7.7397526 6.4910119,7.2602614 6.6222069,7.0205663 6.714079,6.8527146 6.8526939,6.7140963 7.020543,6.6222199 7.2602469,6.491012 7.7397381,6.4910124 7.9794332,6.6222074 Z M 4.537109,8 h 0.7871095 c 0.2761424,0 0.5469987,0.1735343 0.654297,0.3632812 L 5.0723033,9.2694936 C 4.8770412,9.4647557 4.5792483,9.4462155 4.4448072,9.2052786 4.318073,8.9781537 4.2170444,8.7375953 4.1436047,8.488088 4.0656995,8.2234097 4.2609666,8 4.537109,8 Z m 5.1386715,0 h 0.7890635 c 0.276142,0 0.471333,0.2234017 0.393336,0.4880553 -0.08035,0.2726226 -0.193607,0.5344639 -0.337266,0.7796996 -0.139458,0.238065 -0.440924,0.2536418 -0.6361863,0.05838 l -0.5467999,-0.5468 C 9.1426657,8.5840725 9.1023778,8.2471529 9.1757805,8 Z m -2.675781,1.1757812 v 1.2890628 c 0,0.276142 -0.2234131,0.471422 -0.4880981,0.393532 C 6.2843026,10.7914 6.064093,10.701451 5.8546908,10.589926 5.611169,10.46023 5.5899317,10.165928 5.7851938,9.9706656 L 6.3456652,9.410194 C 6.5409273,9.2149319 6.8285105,9.1256176 6.9999995,9.1757812 Z M 8.587928,9.4433969 9.156212,10.011681 c 0.1952622,0.195262 0.1711804,0.485728 -0.075038,0.610232 -0.1901163,0.09614 -0.3886202,0.174716 -0.5930254,0.234756 -0.2647228,0.07776 -0.4881489,-0.117636 -0.4881489,-0.393778 V 9.6757812 c 0,-0.2761424 0.108647,-0.5293638 0.234375,-0.5859376 z" />
</svg>
