<?xml version="1.0" encoding="UTF-8" standalone="no"?>
<svg
   xmlns:dc="http://purl.org/dc/elements/1.1/"
   xmlns:cc="http://creativecommons.org/ns#"
   xmlns:rdf="http://www.w3.org/1999/02/22-rdf-syntax-ns#"
   xmlns:svg="http://www.w3.org/2000/svg"
   xmlns="http://www.w3.org/2000/svg"
   xmlns:sodipodi="http://sodipodi.sourceforge.net/DTD/sodipodi-0.dtd"
   xmlns:inkscape="http://www.inkscape.org/namespaces/inkscape"
   width="15"
   height="15"
   viewBox="0 0 15 15"
   version="1.1"
   id="svg8"
   sodipodi:docname="Wanderherberge-geo.svg"
   inkscape:version="1.0.2-2 (e86c870879, 2021-01-15)">
  <sodipodi:namedview
     pagecolor="#ffffff"
     bordercolor="#666666"
     borderopacity="1"
     objecttolerance="10"
     gridtolerance="10"
     guidetolerance="10"
     inkscape:pageopacity="0"
     inkscape:pageshadow="2"
     inkscape:window-width="1920"
     inkscape:window-height="1000"
     id="namedview7"
     showgrid="false"
     inkscape:zoom="55.466667"
     inkscape:cx="7.5"
     inkscape:cy="7.5"
     inkscape:window-x="-11"
     inkscape:window-y="-11"
     inkscape:window-maximized="1"
     inkscape:current-layer="svg8" />
  <title
     id="title11">Wanderherberge_geometrisch</title>
  <defs
     id="defs2" />
  <metadata
     id="metadata5">
    <rdf:RDF>
      <cc:Work
         rdf:about="">
        <dc:format>image/svg+xml</dc:format>
        <dc:type
           rdf:resource="http://purl.org/dc/dcmitype/StillImage" />
        <dc:title>Wanderherberge_geometrisch</dc:title>
        <dc:creator>
          <cc:Agent>
            <dc:title>Carolin Rünger</dc:title>
          </cc:Agent>
        </dc:creator>
        <cc:license
           rdf:resource="http://creativecommons.org/licenses/by/4.0/" />
      </cc:Work>
      <cc:License
         rdf:about="http://creativecommons.org/licenses/by/4.0/">
        <cc:permits
           rdf:resource="http://creativecommons.org/ns#Reproduction" />
        <cc:permits
           rdf:resource="http://creativecommons.org/ns#Distribution" />
        <cc:requires
           rdf:resource="http://creativecommons.org/ns#Notice" />
        <cc:requires
           rdf:resource="http://creativecommons.org/ns#Attribution" />
        <cc:permits
           rdf:resource="http://creativecommons.org/ns#DerivativeWorks" />
      </cc:License>
    </rdf:RDF>
  </metadata>
  <path
     id="rect859"
     style="fill:#000000;fill-opacity:1;stroke:none;stroke-width:1.14194;stroke-miterlimit:4;stroke-dasharray:none;stroke-opacity:1"
     d="M 7.0824956,1.1365811 1.0699223,5.5850636 A 0.17915484,0.17231513 0 0 0 1.179155,5.8939599 H 2.2326292 A 0.52673709,0.5066275 0 0 1 2.7593663,6.4005874 V 13.493372 A 0.52673709,0.5066275 0 0 0 3.2861033,14 h 8.4277937 a 0.52673709,0.5066275 0 0 0 0.526737,-0.506628 V 6.4005874 a 0.52673709,0.5066275 0 0 1 0.526737,-0.5066275 h 1.053474 A 0.17915484,0.17231513 0 0 0 13.930078,5.5850636 L 7.9175046,1.1365811 a 0.68475822,0.65861576 0 0 0 -0.835009,0 z M 4.3395775,5.8939599 h 0.5267371 a 0.6230249,0.59923927 0 0 1 0.6143468,0.4995707 l 0.4585112,2.6145375 a 0.09230493,0.08878095 0 0 0 0.1818353,0.00111 L 6.6156689,6.3924155 A 0.63114309,0.60704752 0 0 1 7.2366316,5.8939599 h 0.526737 A 0.63129742,0.60719596 0 0 1 8.384456,6.3923936 l 0.4964691,2.6227486 a 0.09215288,0.08863469 0 0 0 0.1815441,-0.00121 L 9.5197547,6.3935979 a 0.62251922,0.59875289 0 0 1 0.6139303,-0.499638 h 0.526738 a 0.42579768,0.40954173 0 0 1 0.416341,0.4953755 L 9.7173451,12.489391 a 0.65247352,0.6275636 0 0 1 -0.6371333,0.496035 l -0.5267379,6.59e-4 A 0.58773453,0.56529621 0 0 1 7.9685688,12.483216 L 7.5581685,8.9306263 a 0.05856449,0.05632864 0 0 0 -0.1164117,-8e-6 L 7.0315063,12.477287 c -0.032167,0.278087 -0.2940702,0.504276 -0.5849783,0.50493 -0.1755805,3.95e-4 -0.3511611,7.45e-4 -0.5267416,0.0011 C 5.6288786,12.983971 5.3436257,12.762938 5.2826555,12.48935 L 3.9232366,6.3893354 A 0.42579768,0.40954173 0 0 1 4.3395775,5.8939599 Z" />
</svg>
