<?xml version="1.0" encoding="UTF-8" standalone="no"?>
<svg
   xmlns:dc="http://purl.org/dc/elements/1.1/"
   xmlns:cc="http://creativecommons.org/ns#"
   xmlns:rdf="http://www.w3.org/1999/02/22-rdf-syntax-ns#"
   xmlns:svg="http://www.w3.org/2000/svg"
   xmlns="http://www.w3.org/2000/svg"
   xmlns:sodipodi="http://sodipodi.sourceforge.net/DTD/sodipodi-0.dtd"
   xmlns:inkscape="http://www.inkscape.org/namespaces/inkscape"
   width="15"
   height="15"
   viewBox="0 0 15 15"
   version="1.1"
   id="svg8"
   sodipodi:docname="F채hre-bild.svg"
   inkscape:version="1.0.2-2 (e86c870879, 2021-01-15)">
  <sodipodi:namedview
     pagecolor="#ffffff"
     bordercolor="#666666"
     borderopacity="1"
     objecttolerance="10"
     gridtolerance="10"
     guidetolerance="10"
     inkscape:pageopacity="0"
     inkscape:pageshadow="2"
     inkscape:window-width="1920"
     inkscape:window-height="1000"
     id="namedview7"
     showgrid="true"
     inkscape:zoom="39.220856"
     inkscape:cx="7.5"
     inkscape:cy="7.5"
     inkscape:window-x="-11"
     inkscape:window-y="-11"
     inkscape:window-maximized="1"
     inkscape:current-layer="svg8"
     inkscape:document-rotation="0">
    <inkscape:grid
       type="xygrid"
       id="grid8" />
  </sodipodi:namedview>
  <title
     id="title13">F채hre_bildhaft</title>
  <defs
     id="defs2" />
  <metadata
     id="metadata5">
    <rdf:RDF>
      <cc:Work
         rdf:about="">
        <dc:format>image/svg+xml</dc:format>
        <dc:type
           rdf:resource="http://purl.org/dc/dcmitype/StillImage" />
        <dc:title>F채hre_bildhaft</dc:title>
        <dc:creator>
          <cc:Agent>
            <dc:title>Carolin R체nger</dc:title>
          </cc:Agent>
        </dc:creator>
        <cc:license
           rdf:resource="http://creativecommons.org/licenses/by/4.0/" />
      </cc:Work>
      <cc:License
         rdf:about="http://creativecommons.org/licenses/by/4.0/">
        <cc:permits
           rdf:resource="http://creativecommons.org/ns#Reproduction" />
        <cc:permits
           rdf:resource="http://creativecommons.org/ns#Distribution" />
        <cc:requires
           rdf:resource="http://creativecommons.org/ns#Notice" />
        <cc:requires
           rdf:resource="http://creativecommons.org/ns#Attribution" />
        <cc:permits
           rdf:resource="http://creativecommons.org/ns#DerivativeWorks" />
      </cc:License>
    </rdf:RDF>
  </metadata>
  <path
     id="rect8-1"
     style="fill:#000000;stroke-width:0.218703"
     d="M 9.5182985,2.9163198 9.3656144,3.1477701 A 0.92481994,0.93689114 0 0 1 8.5966959,3.5640898 H 5.400323 A 0.89122307,0.90285574 0 0 0 4.6443076,3.9888543 L 3.5816498,5.7134096 A 0.89122307,0.90285574 0 0 1 2.8256345,6.138174 H 1.169362 A 0.27198271,0.27553276 0 0 0 0.93960593,6.5611634 L 2.5260409,9.0979772 a 0.89826138,0.90998592 0 0 0 0.7588016,0.4229894 h 8.5301455 a 0.89782567,0.90954452 0 0 0 0.75863,-0.4230993 l 1.584861,-2.536594 A 0.27211469,0.27566646 0 0 0 13.928551,6.138174 H 12.274197 A 0.92194871,0.93398243 0 0 1 11.506343,5.7211357 L 10.852867,4.7249778 a 0.74641374,0.75615629 0 0 1 -0.0014,-0.8349802 L 11.484674,2.9179418 A 0.26603548,0.26950791 0 0 0 11.262624,2.5 H 10.287218 A 0.92481994,0.93689114 0 0 0 9.5182985,2.9163198 Z M 5.8165146,4.6261529 H 9.321675 a 0.91686323,0.92883057 0 0 1 0.765952,0.4183126 l 0.438636,0.675396 A 0.26646456,0.26994258 0 0 1 10.303657,6.138174 H 4.796174 A 0.26083761,0.26424219 0 0 1 4.5808443,5.7248053 L 5.0432866,5.0395217 A 0.93664237,0.94886788 0 0 1 5.8165146,4.6261529 Z M 1.063137,10.531793 0.80103524,11.072064 a 0.49776685,0.50426395 0 0 0 0.22404406,0.673404 l 0.2397948,0.121517 c 0.2441415,0.123719 0.6365094,0.331996 0.8865704,0.442829 0.1180101,0.05231 0.241017,0.09964 0.3700645,0.135593 0.2622412,0.07307 0.7132057,0.07242 0.9756637,-5.63e-4 0.1295666,-0.03603 0.2531692,-0.08339 0.3717242,-0.135709 0.2500812,-0.110367 0.6398289,-0.324904 0.8925101,-0.429362 0.0067,-0.0028 0.013374,-0.0055 0.02002,-0.0082 0.2511777,-0.101891 0.7006833,-0.101563 0.9526543,6.99e-4 0.00662,0.0027 0.013265,0.0054 0.019935,0.0082 0.2518907,0.104167 0.6410842,0.318542 0.8911452,0.429374 0.1180102,0.05231 0.241017,0.09964 0.3700645,0.135593 0.2622412,0.07307 0.7132057,0.07242 0.9756638,-5.63e-4 0.1295666,-0.03603 0.2531692,-0.08339 0.3717243,-0.135709 0.2500812,-0.110366 0.6397937,-0.324957 0.8923927,-0.42962 0.00614,-0.0025 0.012264,-0.0051 0.018363,-0.0075 0.2510203,-0.102223 0.7005406,-0.101962 0.9525122,3e-4 0.0066,0.0027 0.01327,0.0054 0.01994,0.0082 0.251891,0.104167 0.64112,0.318484 0.891251,0.42915 0.118568,0.05246 0.242196,0.09993 0.371847,0.13595 0.262299,0.07288 0.713265,0.07234 0.975668,-8.31e-4 0.128962,-0.03596 0.251944,-0.08318 0.369941,-0.135351 0.250009,-0.110532 0.642313,-0.318654 0.886454,-0.442373 l 0.239795,-0.121517 a 0.4871707,0.49352949 0 0 0 0.21455,-0.668548 l -0.281474,-0.549983 a 0.48944547,0.49583395 0 0 0 -0.664057,-0.209702 l -0.189434,0.1019 c -0.2411,0.129696 -0.629067,0.347111 -0.880435,0.454715 -0.235547,0.100831 -0.673251,0.09866 -0.922317,-0.01009 -0.235909,-0.103008 -0.609052,-0.321151 -0.85734,-0.435975 -0.09794,-0.0453 -0.199511,-0.08655 -0.305374,-0.119503 -0.2598055,-0.08087 -0.7124905,-0.08149 -0.9726688,-0.0012 -0.1063858,0.03282 -0.2084581,0.07402 -0.3068377,0.119312 -0.2483167,0.11432 -0.6323171,0.339891 -0.8836851,0.447495 C 7.6961583,10.974827 7.258453,10.97266 7.0093876,10.863901 6.7734796,10.760893 6.4003374,10.54275 6.1520489,10.427926 6.0541139,10.38263 5.9525372,10.34138 5.8466739,10.308424 5.5868693,10.227556 5.1341844,10.226935 4.8740061,10.307222 4.7676202,10.34004 4.6655478,10.38124 4.5671681,10.426534 4.3188514,10.54086 3.934851,10.766431 3.6834829,10.874035 3.4479318,10.974681 3.0102265,10.972508 2.7611611,10.863756 2.5252532,10.760748 2.1483872,10.550567 1.9074749,10.420513 L 1.7173604,10.317884 A 0.47832139,0.48456467 0 0 0 1.063137,10.531793 Z" />
</svg>
