<?xml version="1.0" encoding="UTF-8" standalone="no"?>
<svg
   xmlns:dc="http://purl.org/dc/elements/1.1/"
   xmlns:cc="http://creativecommons.org/ns#"
   xmlns:rdf="http://www.w3.org/1999/02/22-rdf-syntax-ns#"
   xmlns:svg="http://www.w3.org/2000/svg"
   xmlns="http://www.w3.org/2000/svg"
   xmlns:sodipodi="http://sodipodi.sourceforge.net/DTD/sodipodi-0.dtd"
   xmlns:inkscape="http://www.inkscape.org/namespaces/inkscape"
   width="15"
   height="15"
   viewBox="0 0 15 15"
   version="1.1"
   id="svg8"
   sodipodi:docname="Gaststätte_Restaurant-geo-alt1.svg"
   inkscape:version="1.0.2-2 (e86c870879, 2021-01-15)">
  <sodipodi:namedview
     pagecolor="#ffffff"
     bordercolor="#666666"
     borderopacity="1"
     objecttolerance="10"
     gridtolerance="10"
     guidetolerance="10"
     inkscape:pageopacity="0"
     inkscape:pageshadow="2"
     inkscape:window-width="1920"
     inkscape:window-height="1000"
     id="namedview7"
     showgrid="true"
     inkscape:zoom="27.733334"
     inkscape:cx="-0.37013514"
     inkscape:cy="9.3726325"
     inkscape:window-x="-11"
     inkscape:window-y="-11"
     inkscape:window-maximized="1"
     inkscape:current-layer="svg8"
     inkscape:document-rotation="0">
    <inkscape:grid
       type="xygrid"
       id="grid8" />
  </sodipodi:namedview>
  <title
     id="title12">Restaurant_geometrisch_alt1</title>
  <defs
     id="defs2" />
  <metadata
     id="metadata5">
    <rdf:RDF>
      <cc:Work
         rdf:about="">
        <dc:format>image/svg+xml</dc:format>
        <dc:type
           rdf:resource="http://purl.org/dc/dcmitype/StillImage" />
        <dc:title>Restaurant_geometrisch_alt1</dc:title>
        <dc:creator>
          <cc:Agent>
            <dc:title>Carolin Rünger</dc:title>
          </cc:Agent>
        </dc:creator>
        <cc:license
           rdf:resource="http://creativecommons.org/licenses/by/4.0/" />
      </cc:Work>
      <cc:License
         rdf:about="http://creativecommons.org/licenses/by/4.0/">
        <cc:permits
           rdf:resource="http://creativecommons.org/ns#Reproduction" />
        <cc:permits
           rdf:resource="http://creativecommons.org/ns#Distribution" />
        <cc:requires
           rdf:resource="http://creativecommons.org/ns#Notice" />
        <cc:requires
           rdf:resource="http://creativecommons.org/ns#Attribution" />
        <cc:permits
           rdf:resource="http://creativecommons.org/ns#DerivativeWorks" />
      </cc:License>
    </rdf:RDF>
  </metadata>
  <path
     id="path4-3-9"
     style="stroke-width:0.0134191"
     d="m 3.5024293,1.5 v 3.8223049 c 0,0.098138 -9.796e-4,0.2588582 0.025917,0.3529038 0.1292087,0.4517752 0.7160089,0.9250868 1.1804936,1.2229377 0.037688,0.024167 0.098196,0.064334 0.1347554,0.090331 a 0.79616111,0.79642453 0 0 1 0.2579143,0.6833965 v 5.8281251 a 0.49983462,0.5 0 0 0 0.4998347,0.5 h 0.4998349 a 0.49983462,0.5 0 0 0 0.4998346,-0.5 V 7.6660149 A 0.81814436,0.81841506 0 0 1 6.9641754,6.9472659 C 7.4064445,6.7057459 8.0160807,6.1762962 8.1658491,5.7044719 8.2004899,5.5953408 8.200094,5.4067542 8.200094,5.2917299 V 1.4170762 A 0.41693822,0.41707617 0 0 0 7.7831558,1 0.44467569,0.44482282 0 0 0 7.4015299,1.5 v 3.5937739 c 0,0.0043 2.41e-5,0.01128 -2.321e-4,0.015573 -0.00586,0.098177 -0.121554,0.1765833 -0.2274922,0.1864743 -0.012218,0.00114 -0.032027,0.00114 -0.044071,1.42e-5 -0.1052621,-0.00983 -0.2202768,-0.08826 -0.2276629,-0.1844871 -4.14e-4,-0.00539 -3.756e-4,-0.01401 -3.756e-4,-0.019221 V 1.4078624 A 0.40772751,0.40786241 0 0 0 6.4939686,1 0.44950953,0.44965826 0 0 0 6.1011799,1.5 v 3.5947205 c 0,0.00378 1.88e-5,0.00991 -1.817e-4,0.013682 -0.00549,0.1033951 -0.1345086,0.1869899 -0.2467496,0.1884533 -0.00165,2.15e-5 -0.00418,2.11e-5 -0.00564,3.7e-6 -0.1063526,-0.00126 -0.2305557,-0.078057 -0.2457227,-0.1754719 -0.00169,-0.010851 -0.00154,-0.028575 -0.00154,-0.03937 V 1.4078624 A 0.40772751,0.40786241 0 0 0 5.1936184,1 0.44865797,0.44880642 0 0 0 4.8027817,1.5 v 3.585142 c 0,0.00907 1.032e-4,0.023807 -0.00104,0.032798 -0.012691,0.099894 -0.139222,0.1772912 -0.2454955,0.1789092 -0.00187,2.84e-5 -0.00475,2.79e-5 -0.00643,5.1e-6 C 4.4364352,5.2953133 4.3029455,5.2080609 4.3029455,5.1015629 V 1.3986487 A 0.39851679,0.39864865 0 0 0 3.9044287,1 0.45356263,0.4537127 0 0 0 3.5024293,1.5 Z M 11,1.0054474 C 10.243065,1.0289343 9.3676661,1.1536857 9.0899122,1.8163034 8.9839145,2.0691748 9.0006105,2.5285456 9.0006105,2.804688 v 4.1953119 a 0.49983462,0.5 0 0 0 0.4998346,0.5 h 10e-8 a 0.49983462,0.5 0 0 1 0.4998348,0.5 v 5.4999991 a 0.49983462,0.5 0 0 0 0.499834,0.5 h 0.499835 a 0.49983462,0.5 0 0 0 0.499835,-0.5 V 1.5 C 11.499784,1.2238576 11.275907,0.9968863 11,1.0054474 Z" />
</svg>
