<?xml version="1.0" encoding="UTF-8" standalone="no"?>
<svg
   xmlns:dc="http://purl.org/dc/elements/1.1/"
   xmlns:cc="http://creativecommons.org/ns#"
   xmlns:rdf="http://www.w3.org/1999/02/22-rdf-syntax-ns#"
   xmlns:svg="http://www.w3.org/2000/svg"
   xmlns="http://www.w3.org/2000/svg"
   xmlns:sodipodi="http://sodipodi.sourceforge.net/DTD/sodipodi-0.dtd"
   xmlns:inkscape="http://www.inkscape.org/namespaces/inkscape"
   width="15"
   height="15"
   viewBox="0 0 15 15"
   version="1.1"
   id="svg8"
   sodipodi:docname="Hotel-geo.svg"
   inkscape:version="1.0.2-2 (e86c870879, 2021-01-15)">
  <sodipodi:namedview
     pagecolor="#ffffff"
     bordercolor="#666666"
     borderopacity="1"
     objecttolerance="10"
     gridtolerance="10"
     guidetolerance="10"
     inkscape:pageopacity="0"
     inkscape:pageshadow="2"
     inkscape:window-width="1920"
     inkscape:window-height="1000"
     id="namedview7"
     showgrid="false"
     inkscape:zoom="55.466667"
     inkscape:cx="7.5"
     inkscape:cy="7.5"
     inkscape:window-x="-11"
     inkscape:window-y="-11"
     inkscape:window-maximized="1"
     inkscape:current-layer="svg8"
     inkscape:document-rotation="0" />
  <title
     id="title17">Hotel_geometrisch</title>
  <defs
     id="defs2" />
  <metadata
     id="metadata5">
    <rdf:RDF>
      <cc:Work
         rdf:about="">
        <dc:format>image/svg+xml</dc:format>
        <dc:type
           rdf:resource="http://purl.org/dc/dcmitype/StillImage" />
        <dc:title>Hotel_geometrisch</dc:title>
        <dc:creator>
          <cc:Agent>
            <dc:title>Carolin Rünger</dc:title>
          </cc:Agent>
        </dc:creator>
        <cc:license
           rdf:resource="http://creativecommons.org/licenses/by/4.0/" />
      </cc:Work>
      <cc:License
         rdf:about="http://creativecommons.org/licenses/by/4.0/">
        <cc:permits
           rdf:resource="http://creativecommons.org/ns#Reproduction" />
        <cc:permits
           rdf:resource="http://creativecommons.org/ns#Distribution" />
        <cc:requires
           rdf:resource="http://creativecommons.org/ns#Notice" />
        <cc:requires
           rdf:resource="http://creativecommons.org/ns#Attribution" />
        <cc:permits
           rdf:resource="http://creativecommons.org/ns#DerivativeWorks" />
      </cc:License>
    </rdf:RDF>
  </metadata>
  <path
     id="rect859-6-1"
     style="fill:#000000;fill-opacity:1;stroke:none;stroke-width:1.14289;stroke-miterlimit:4;stroke-dasharray:none;stroke-opacity:1"
     d="M 7.0544948,1.1205159 1.0704623,4.6400104 a 0.14806043,0.14150726 0 0 0 0.077598,0.2620231 H 2.2172509 A 0.52310375,0.49995113 0 0 1 2.7403547,5.4019846 V 13.500049 A 0.52310375,0.49995113 0 0 0 3.2634584,14 h 8.4730836 a 0.52310375,0.49995113 0 0 0 0.523104,-0.499951 V 5.4019846 A 0.52310375,0.49995113 0 0 1 12.78275,4.9020335 h 1.069191 a 0.14806044,0.14150727 0 0 0 0.0776,-0.2620231 L 7.9455062,1.1205159 a 0.85004359,0.81242058 0 0 0 -0.8910114,0 z M 5.3788566,4.9020335 H 5.9191977 A 0.52310375,0.49995113 0 0 1 6.4423014,5.4019846 V 7.6874593 A 0.52310375,0.49995113 0 0 0 6.9654052,8.1874104 H 8.0345958 A 0.52310375,0.49995113 0 0 0 8.5576995,7.6874593 V 5.4019846 A 0.52310375,0.49995113 0 0 1 9.0808033,4.9020335 H 9.6211444 A 0.52310375,0.49995113 0 0 1 10.144248,5.4019846 V 12.489164 A 0.52310375,0.49995113 0 0 1 9.6211444,12.989115 H 9.0808033 A 0.52310375,0.49995113 0 0 1 8.5576995,12.489164 V 10.203689 A 0.52310375,0.49995113 0 0 0 8.0345958,9.7037382 H 6.9654052 A 0.52310375,0.49995113 0 0 0 6.4423014,10.203689 v 2.285475 A 0.52310375,0.49995113 0 0 1 5.9191977,12.989115 H 5.3788566 A 0.52310375,0.49995113 0 0 1 4.8557529,12.489164 V 5.4019846 A 0.52310375,0.49995113 0 0 1 5.3788566,4.9020335 Z" />
</svg>
