<?xml version="1.0" encoding="UTF-8" standalone="no"?>
<svg
   xmlns:dc="http://purl.org/dc/elements/1.1/"
   xmlns:cc="http://creativecommons.org/ns#"
   xmlns:rdf="http://www.w3.org/1999/02/22-rdf-syntax-ns#"
   xmlns:svg="http://www.w3.org/2000/svg"
   xmlns="http://www.w3.org/2000/svg"
   xmlns:sodipodi="http://sodipodi.sourceforge.net/DTD/sodipodi-0.dtd"
   xmlns:inkscape="http://www.inkscape.org/namespaces/inkscape"
   width="15"
   height="15"
   viewBox="0 0 15 15"
   version="1.1"
   id="svg8"
   sodipodi:docname="Jugendherberge-bild.svg"
   inkscape:version="1.0.2-2 (e86c870879, 2021-01-15)">
  <sodipodi:namedview
     pagecolor="#ffffff"
     bordercolor="#666666"
     borderopacity="1"
     objecttolerance="10"
     gridtolerance="10"
     guidetolerance="10"
     inkscape:pageopacity="0"
     inkscape:pageshadow="2"
     inkscape:window-width="1920"
     inkscape:window-height="1000"
     id="namedview7"
     showgrid="true"
     inkscape:zoom="39.220856"
     inkscape:cx="7.5"
     inkscape:cy="7.5"
     inkscape:window-x="-11"
     inkscape:window-y="-11"
     inkscape:window-maximized="1"
     inkscape:current-layer="svg8"
     inkscape:document-rotation="0">
    <inkscape:grid
       type="xygrid"
       id="grid8" />
  </sodipodi:namedview>
  <title
     id="title11">Jugendherberge_bildhaft</title>
  <defs
     id="defs2" />
  <metadata
     id="metadata5">
    <rdf:RDF>
      <cc:Work
         rdf:about="">
        <dc:format>image/svg+xml</dc:format>
        <dc:type
           rdf:resource="http://purl.org/dc/dcmitype/StillImage" />
        <dc:title>Jugendherberge_bildhaft</dc:title>
        <dc:creator>
          <cc:Agent>
            <dc:title>Carolin Rünger</dc:title>
          </cc:Agent>
        </dc:creator>
        <cc:license
           rdf:resource="http://creativecommons.org/licenses/by/4.0/" />
      </cc:Work>
      <cc:License
         rdf:about="http://creativecommons.org/licenses/by/4.0/">
        <cc:permits
           rdf:resource="http://creativecommons.org/ns#Reproduction" />
        <cc:permits
           rdf:resource="http://creativecommons.org/ns#Distribution" />
        <cc:requires
           rdf:resource="http://creativecommons.org/ns#Notice" />
        <cc:requires
           rdf:resource="http://creativecommons.org/ns#Attribution" />
        <cc:permits
           rdf:resource="http://creativecommons.org/ns#DerivativeWorks" />
      </cc:License>
    </rdf:RDF>
  </metadata>
  <path
     id="rect8"
     style="fill:#000000;fill-opacity:1;stroke-width:1.00913"
     d="M 9.6464466,1.8991322 6.3535534,5.2524156 A 0.20710678,0.21090503 0 0 0 6.5,5.612453 0.5,0.5091698 0 0 1 7,6.1216229 V 11.213322 A 0.5,0.5091698 0 0 1 6.5,11.722491 H 4.75 A 0.5,0.5091698 0 0 1 4.25,11.213322 V 9.685812 A 0.5,0.5091698 0 0 1 4.75,9.1766417 H 5.5 A 0.27712382,0.28220615 0 0 0 5.7350005,8.7448664 L 4.7024995,7.0625679 A 0.27712382,0.28220615 0 0 1 4.9375,6.6307927 H 5.25 a 0.29242374,0.29778668 0 0 0 0.2548694,-0.44378 L 3.7451306,3.0012143 a 0.28125,0.28640801 0 0 0 -0.4902612,0 L 1.4951306,6.1870127 A 0.29242374,0.29778668 0 0 0 1.75,6.6307927 H 2.0625 A 0.27712382,0.28220615 0 0 1 2.2975005,7.0625679 L 1.2649995,8.7448664 A 0.27712382,0.28220615 0 0 0 1.5,9.1766417 h 0.75 a 0.5,0.5091698 0 0 1 0.5,0.5091703 v 1.52751 a 0.5,0.5091698 0 0 1 -0.5,0.509169 H 1.5 A 0.5,0.5091698 0 0 0 1,12.23166 v 0.50917 A 0.5,0.5091698 0 0 0 1.5,13.25 h 12 A 0.5,0.5091698 0 0 0 14,12.74083 V 12.23166 A 0.5,0.5091698 0 0 0 13.5,11.722491 0.5,0.5091698 0 0 1 13,11.213322 V 6.1216229 A 0.5,0.5091698 0 0 1 13.5,5.612453 0.20710678,0.21090503 0 0 0 13.646447,5.2524156 L 10.353553,1.8991322 a 0.5,0.5091698 0 0 0 -0.7071064,0 z M 9.5,8.6674719 h 1 A 0.5,0.5091698 0 0 1 11,9.1766417 v 2.0366803 a 0.5,0.5091698 0 0 1 -0.5,0.509169 h -1 A 0.5,0.5091698 0 0 1 9,11.213322 V 9.1766417 A 0.5,0.5091698 0 0 1 9.5,8.6674719 Z" />
</svg>
