<?xml version="1.0" encoding="UTF-8" standalone="no"?>
<svg
   xmlns:dc="http://purl.org/dc/elements/1.1/"
   xmlns:cc="http://creativecommons.org/ns#"
   xmlns:rdf="http://www.w3.org/1999/02/22-rdf-syntax-ns#"
   xmlns:svg="http://www.w3.org/2000/svg"
   xmlns="http://www.w3.org/2000/svg"
   xmlns:sodipodi="http://sodipodi.sourceforge.net/DTD/sodipodi-0.dtd"
   xmlns:inkscape="http://www.inkscape.org/namespaces/inkscape"
   width="15"
   height="15"
   viewBox="0 0 15 15"
   version="1.1"
   id="svg8"
   sodipodi:docname="Tankstelle-bild.svg"
   inkscape:version="1.0.2-2 (e86c870879, 2021-01-15)">
  <sodipodi:namedview
     pagecolor="#ffffff"
     bordercolor="#666666"
     borderopacity="1"
     objecttolerance="10"
     gridtolerance="10"
     guidetolerance="10"
     inkscape:pageopacity="0"
     inkscape:pageshadow="2"
     inkscape:window-width="1920"
     inkscape:window-height="1000"
     id="namedview7"
     showgrid="false"
     inkscape:zoom="55.466667"
     inkscape:cx="7.5"
     inkscape:cy="7.5"
     inkscape:window-x="-11"
     inkscape:window-y="-11"
     inkscape:window-maximized="1"
     inkscape:current-layer="svg8" />
  <title
     id="title11">Tankstelle_bildhaft</title>
  <defs
     id="defs2" />
  <metadata
     id="metadata5">
    <rdf:RDF>
      <cc:Work
         rdf:about="">
        <dc:format>image/svg+xml</dc:format>
        <dc:type
           rdf:resource="http://purl.org/dc/dcmitype/StillImage" />
        <dc:title>Tankstelle_bildhaft</dc:title>
        <dc:creator>
          <cc:Agent>
            <dc:title>Carolin Rünger</dc:title>
          </cc:Agent>
        </dc:creator>
        <cc:license
           rdf:resource="http://creativecommons.org/licenses/by/4.0/" />
      </cc:Work>
      <cc:License
         rdf:about="http://creativecommons.org/licenses/by/4.0/">
        <cc:permits
           rdf:resource="http://creativecommons.org/ns#Reproduction" />
        <cc:permits
           rdf:resource="http://creativecommons.org/ns#Distribution" />
        <cc:requires
           rdf:resource="http://creativecommons.org/ns#Notice" />
        <cc:requires
           rdf:resource="http://creativecommons.org/ns#Attribution" />
        <cc:permits
           rdf:resource="http://creativecommons.org/ns#DerivativeWorks" />
      </cc:License>
    </rdf:RDF>
  </metadata>
  <path
     d="M 6.2714944,1.5127483 V 1.8022066 A 0.38929506,0.38927889 0 0 1 5.886234,2.1914646 C 5.7275843,2.1931088 5.3430119,2.1473202 5.1178284,2.299966 5.0729183,2.3304096 4.9008035,2.5382747 4.776267,2.7843326 4.4617656,3.4057213 4.4169993,4.0662138 4.3468218,4.7504632 4.3187032,5.0246268 4.2456172,5.4660121 4.1774072,5.7335641 4.0357271,6.2893015 3.841301,6.8429758 3.6019376,7.375635 3.4887739,7.6274599 3.2847894,8.0263953 3.1447957,8.2643787 2.9851758,8.5357256 2.7607195,8.8914023 2.3815963,9.4781885 2.2317478,9.7101155 1.9875118,10.085333 1.8375551,10.317215 c -0.2961119,0.457886 -0.5322055,0.828578 -0.5896063,0.925449 -0.00533,0.009 -0.013594,0.02393 -0.018608,0.03327 -0.1045711,0.19483 -0.1711316,0.383551 -0.2043785,0.586771 -0.0379629,0.232046 -0.0380879,0.623273 0.038124,0.844897 8.536e-4,0.0025 0.00229,0.0066 0.00321,0.0092 0.049319,0.139326 0.1062809,0.259188 0.1777486,0.369752 0.1494441,0.231197 0.4959139,0.529803 0.7398972,0.657677 0.1581018,0.08286 0.3321155,0.147969 0.530364,0.199782 0.00249,6.51e-4 0.00652,0.0017 0.00901,0.0023 0.1600888,0.04024 0.2032583,0.04522 0.5105764,0.0456 0.02616,3.2e-5 0.068375,3.2e-5 0.094288,0 0.3079271,-3.78e-4 0.3509143,-0.0054 0.5113415,-0.04568 0.00231,-5.8e-4 0.00586,-0.0015 0.00793,-0.002 0.7677929,-0.199492 1.3199444,-0.703219 1.4802895,-1.350014 4.568e-4,-0.0018 0.0012,-0.0048 0.00165,-0.0067 0.034239,-0.14091 0.037752,-0.316805 0.038017,-3.3732315 2.38e-5,-0.2757753 1.86e-5,-0.7231929 1.86e-5,-0.9993353 V 5.3442936 A 0.34769314,0.3476787 0 0 1 5.5151155,4.9966149 h 0.4546839 a 0.30169522,0.30168269 0 0 1 0.3016952,0.3016827 v 8.1907014 c 0,0.276142 0.2238603,0.501742 0.5000089,0.503439 2.2428419,0.01378 4.4856455,0.006 6.7284925,-0.0017 C 13.776141,13.989758 14,13.765141 14,13.488999 V 1.5 A 0.50002076,0.5 0 0 0 13.499979,1 H 6.784264 A 0.51276961,0.51274832 0 0 0 6.2714944,1.5127483 Z m 6.1729276,0.7284122 c 0.143169,0.053682 0.314971,0.2112875 0.366102,0.3342498 0.02994,0.074592 0.03561,0.1517459 0.03661,1.047158 3.07e-4,0.2758118 2e-4,0.7232593 2e-4,0.9994017 v 0.9547721 c -0.03162,0.057388 -0.132465,0.2372083 -0.281041,0.3336418 -0.04305,0.027944 -0.08862,0.051589 -0.134516,0.0694 -0.01101,0.00427 -0.02915,0.01051 -0.04035,0.014338 a 1.8221723,1.8220966 0 0 1 -0.59632,0.032902 h -1.229293 c -0.276153,0 -0.7238871,1.6e-5 -1.000041,-1.98e-5 C 8.1186646,6.026816 7.8735146,6.0248491 7.7691647,6.0042608 7.7438449,5.9992652 7.7036237,5.9863495 7.679508,5.976365 7.544482,5.9204609 7.3997667,5.7973741 7.3341338,5.683244 7.3237038,5.6651069 7.3095043,5.6339785 7.3029539,5.6139078 7.2784446,5.5388096 7.2746858,5.4078728 7.2741093,4.6147962 7.2739087,4.3387887 7.2738299,3.8911826 7.2740772,3.6150403 c 8.051e-4,-0.8985592 0.0088,-1.025957 0.082043,-1.1248687 0.025905,-0.034982 0.073919,-0.086924 0.106277,-0.1157396 0.029293,-0.026087 0.062098,-0.051542 0.089855,-0.068868 0.00664,-0.00415 0.017713,-0.010491 0.024489,-0.014563 0.1616968,-0.097144 0.099079,-0.098638 2.0089973,-0.095636 0.2764164,4.345e-4 0.7243625,0.00111 1.0005155,0.00154 l 1.726203,0.00269 a 0.1279197,0.12791439 0 0 1 0.04556,0.00847 z M 4.4392827,12.492097 C 4.3730527,12.75006 4.2030352,12.977518 3.9625562,13.144364 3.7366061,13.301129 3.3162544,13.404696 3.0710057,13.403063 2.6355275,13.358083 2.408953,13.303363 2.1891847,13.138796 2.1384197,13.100786 2.058669,13.033033 2.0116189,12.987485 1.8074299,12.789812 1.7200796,12.599664 1.6993427,12.316423 c -0.00186,-0.02539 -0.00382,-0.06647 -0.00441,-0.09174 -0.00123,-0.05277 2.36e-5,-0.103704 0.00385,-0.153349 0.02111,-0.273843 0.243918,-0.673013 0.391267,-0.906527 0.092607,-0.146753 0.2045164,-0.32227 0.3271854,-0.51306 C 2.5665143,10.41957 2.8102973,10.04415 2.960429,9.8123779 3.1015521,9.5945137 3.2320393,9.3929349 3.3389708,9.2273891 3.4887607,8.9954923 3.7270179,8.616304 3.8588243,8.3736869 3.968446,8.1719055 4.0799452,7.9527749 4.1789736,7.744442 4.2974573,7.4951799 4.4177267,7.200986 4.4617802,7.093859 l 0.00495,2.1359068 c 6.401e-4,0.2761417 0.00156,0.723856 0.00196,0.9999982 0.0028,1.908767 -0.00108,2.156635 -0.029443,2.262333 z"
     id="path4"
     style="stroke-width:0.00188206" />
</svg>
